<?xml version="1.0" encoding="utf-8"?>
<!-- Generator: Adobe Illustrator 24.3.0, SVG Export Plug-In . SVG Version: 6.00 Build 0)  -->
<svg version="1.1" id="图层_1" xmlns="http://www.w3.org/2000/svg" xmlns:xlink="http://www.w3.org/1999/xlink" x="0px" y="0px"
	 viewBox="0 0 200 200" style="enable-background:new 0 0 200 200;" xml:space="preserve">
<path d="M12.5,12.5h160.4c8.1,0,14.6,6.5,14.6,14.6v160.4H27.1c-8.1,0-14.6-6.5-14.6-14.6V12.5z M145.4,60.2l-60.6,64.7L54,99
	c-2.6-2.3-6.5-2-8.8,0.6c-2.3,2.6-2,6.5,0.6,8.8c0.1,0.1,0.1,0.1,0.2,0.2l35.3,29.7c2.5,2.1,6.3,1.9,8.6-0.5l64.7-69
	c2.4-2.5,2.2-6.5-0.3-8.8C151.8,57.5,147.8,57.6,145.4,60.2z"/>
</svg>
