<?xml version="1.0" encoding="utf-8"?>
<!-- Generator: Adobe Illustrator 24.3.0, SVG Export Plug-In . SVG Version: 6.00 Build 0)  -->
<svg version="1.1" id="图层_1" xmlns="http://www.w3.org/2000/svg" xmlns:xlink="http://www.w3.org/1999/xlink" x="0px" y="0px"
	 viewBox="0 0 200.4 200" style="enable-background:new 0 0 200.4 200;" xml:space="preserve">
<path d="M141.5,36.2l0.8,0c3.6,0,6.6,2.7,7.1,6.3l0,0.8v35.4l14.3,0c15.7,0,28.4,12.7,28.4,28.4v71.1c3.7,0,6.7,2.7,7.1,6.3l0.1,0.8
	c0,3.6-2.7,6.6-6.3,7.1l-0.8,0H7.7c-3.9,0-7.1-3.2-7.1-7.1c0-3.9,3.2-7.1,7.1-7.1h0l0-71.1c0-15.7,12.7-28.4,28.4-28.4h14l0-35.4
	c0-3.6,2.7-6.6,6.3-7.1l0.8,0c3.6,0,6.6,2.7,7.1,6.3l0,0.8v35.4h28.4V43.3c0-3.6,2.7-6.6,6.3-7.1l0.8,0c3.6,0,6.6,2.7,7.1,6.3l0,0.8
	v35.4h28.4V43.3C135.2,39.6,137.9,36.6,141.5,36.2l0.8,0L141.5,36.2z M137.7,144.1c-12.6,6.8-25.3,10.2-38,10.2
	c-12.7,0-25.2-3.4-37.6-10.1c-7.8,6.7-16,10.1-24.4,10.1c-5.5,0-10.8-1.5-15.9-4.3v28h156V150c-5.1,2.8-10.3,4.3-15.7,4.3
	C153.8,154.3,145.6,150.8,137.7,144.1L137.7,144.1z M163.7,92.8h-20.5c-0.6,0.1-1.2,0.1-1.8,0h-40.7c-0.6,0.1-1.2,0.1-1.8,0H58.1
	c-0.6,0.1-1.2,0.1-1.8,0H36.1c-7.8,0-14.2,6.4-14.2,14.2v25.4c5.6,5.2,10.9,7.7,15.9,7.7c5.3,0,10.9-2.7,17.1-8.5l1.3-1.3l4-4l4.8,3
	c11.7,7.2,23.3,10.8,34.8,10.8c10.8,0,21.7-3.1,32.9-9.4l2.4-1.4l4.7-2.9l3.9,3.9c6.7,6.7,12.9,9.8,18.5,9.8c5,0,10.2-2.4,15.7-7.7
	V107C177.9,99.2,171.6,92.8,163.7,92.8z M99.9,7.7c3.9,0,7.1,3.2,7.1,7.1s-3.2,7.1-7.1,7.1c-3.9,0-7.1-3.2-7.1-7.1S96,7.7,99.9,7.7z
	 M142.5,7.7c3.9,0,7.1,3.2,7.1,7.1s-3.2,7.1-7.1,7.1c-3.9,0-7.1-3.2-7.1-7.1S138.5,7.7,142.5,7.7z M57.3,7.7c3.9,0,7.1,3.2,7.1,7.1
	s-3.2,7.1-7.1,7.1s-7.1-3.2-7.1-7.1S53.4,7.7,57.3,7.7z"/>
</svg>
