<?xml version="1.0" encoding="utf-8"?>
<!-- Generator: Adobe Illustrator 24.3.0, SVG Export Plug-In . SVG Version: 6.00 Build 0)  -->
<svg version="1.1" id="图层_1" xmlns="http://www.w3.org/2000/svg" xmlns:xlink="http://www.w3.org/1999/xlink" x="0px" y="0px"
	 viewBox="0 0 200.4 200" style="enable-background:new 0 0 200.4 200;" xml:space="preserve">
<path d="M89.6,127.4L137,80c4.8-4.8,4.9-12.6,0.2-17.3c-4.7-4.7-12.5-4.6-17.3,0.2l-47.4,47.4c-4.8,4.8-4.9,12.6-0.2,17.3l0,0
	C77,132.3,84.8,132.2,89.6,127.4L89.6,127.4L89.6,127.4z M92.5,139.8c1.7,2.4,1.9,4.9,1.9,6.3c0,1.7-0.5,5-3.3,7.7l-15,15
	c-2.8,2.8-6,3.2-7.7,3.3c-1.7,0-5-0.3-7.7-3.1l-28.9-28.9c-2.7-2.7-3.1-6-3.1-7.7c0-1.7,0.5-5,3.3-7.7l15-15c2.8-2.8,6-3.2,7.7-3.3
	c1.2,0,3.2,0.2,5.1,1.2l15.8-15.8C63.1,81.5,44,82.4,31.8,94.5l-15,15C4,122.4,3.7,143.2,16.3,155.7l28.9,28.9
	c12.6,12.6,33.3,12.3,46.2-0.6l15-15c12.4-12.5,13.1-32.3,1.8-45L92.5,139.8L92.5,139.8L92.5,139.8z M186.7,43l-28.9-28.9
	c-12.6-12.6-33.3-12.3-46.2,0.6l-15,15C84.5,41.8,83.6,61,94,73.7l15.8-15.8c-1-2-1.2-4-1.2-5.1c0-1.7,0.5-5,3.3-7.7l15-15
	c2.8-2.8,6-3.2,7.7-3.3c1.7,0,5,0.3,7.7,3.1l28.9,28.9c2.7,2.7,3.1,6,3.1,7.7c0,1.7-0.5,5-3.3,7.7l-15,15c-2.8,2.8-6,3.2-7.7,3.3
	c-1.4,0-3.9-0.2-6.3-1.9l-15.7,15.7c12.6,11.3,32.5,10.7,45-1.8l15-15C199,76.4,199.3,55.6,186.7,43L186.7,43L186.7,43z"/>
</svg>
