<?xml version="1.0" encoding="utf-8"?>
<!-- Generator: Adobe Illustrator 24.3.0, SVG Export Plug-In . SVG Version: 6.00 Build 0)  -->
<svg version="1.1" id="图层_1" xmlns="http://www.w3.org/2000/svg" xmlns:xlink="http://www.w3.org/1999/xlink" x="0px" y="0px"
	 viewBox="0 0 200.4 200" style="enable-background:new 0 0 200.4 200;" xml:space="preserve">
<style type="text/css">
	
</style>
<path class="st0" d="M200.4,46.5H0.2v92.4h38.5v53.9h123.2v-53.9h38.5V46.5z M146.5,177.4H54.1v-69.3h92.4V177.4z M185,123.5h-23.1
	V92.7H38.7v30.8H15.6V61.9H185V123.5z M54.1,23.4h92.4v15.4h15.4V8H38.7v30.8h15.4V23.4z"/>
<path class="st0" d="M69.5,123.5h61.6v15.4H69.5V123.5z M69.5,146.6h61.6V162H69.5V146.6z"/>
<path class="st0" d="M161.9,77.3c0,4.3,3.4,7.7,7.7,7.7s7.7-3.4,7.7-7.7s-3.4-7.7-7.7-7.7S161.9,73,161.9,77.3z"/>
</svg>
