<?xml version="1.0" encoding="utf-8"?>
<!-- Generator: Adobe Illustrator 24.3.0, SVG Export Plug-In . SVG Version: 6.00 Build 0)  -->
<svg version="1.1" id="图层_1" xmlns="http://www.w3.org/2000/svg" xmlns:xlink="http://www.w3.org/1999/xlink" x="0px" y="0px"
	 viewBox="0 0 200.4 200" style="enable-background:new 0 0 200.4 200;" xml:space="preserve">

<path class="st0" d="M194.2,157.1H0.6V182h194.2c3.1,0,4.3-0.6,4.3-3.7c0-5-0.6-10.5,0-16.1C199.2,157.8,197.9,157.1,194.2,157.1z
	 M137.1,82.7v57.7c0,3.1,0.6,5,4.3,4.3c5,0,10.5-0.6,15.5,0c3.7,0,5.6-0.6,5.6-5V95.7V25.6c-0.6-3.7-1.2-5-5-5
	c-5,0.6-10.5,0.6-16.1,0c-3.7,0-4.3,1.2-4.3,5V82.7z M62.7,101.3V141c0,3.1,0.6,4.3,4.3,4.3h17.4c2.5,0,3.7-0.6,3.7-3.1v-80
	c-0.6-3.7-1.2-4.3-3.7-4.3H67c-3.7,0-4.3,0.6-4.3,3.7V101.3z M103.6,144.7H121c3.1,0,3.7-0.6,3.7-3.7v-20.5V98.8
	c0-2.5-0.6-3.7-3.1-3.1h-18c-2.5,0-3.7,0.6-3.1,3.1v42.8C99.9,144.1,101.1,144.7,103.6,144.7z M25.4,141.6c0,2.5,0.6,3.1,3.1,3.1
	h18.6c2.5,0,3.1-0.6,3.1-3.1v-15.5V110c0-1.9-0.6-2.5-3.1-2.5H28.6c-2.5,0-3.1,0.6-3.1,3.1V141.6z"/>
</svg>
