<?xml version="1.0" encoding="utf-8"?>
<!-- Generator: Adobe Illustrator 24.3.0, SVG Export Plug-In . SVG Version: 6.00 Build 0)  -->
<svg version="1.1" id="图层_1" xmlns="http://www.w3.org/2000/svg" xmlns:xlink="http://www.w3.org/1999/xlink" x="0px" y="0px"
	 viewBox="0 0 200 200" style="enable-background:new 0 0 200 200;" xml:space="preserve">
<style type="text/css">
	.st0{fill:#666666;}
</style>
<path  d="M75.2,79.6v75c0.1,2.2-1.7,4.1-3.9,4.2c-0.1,0-0.2,0-0.3,0h-8.5c-2.2,0.1-4.1-1.6-4.2-3.8c0-0.1,0-0.2,0-0.3
	v-75c-0.1-2.2,1.7-4.1,3.9-4.2c0.1,0,0.2,0,0.3,0h8.4c2.2-0.1,4.1,1.6,4.2,3.8C75.1,79.3,75.1,79.4,75.2,79.6L75.2,79.6L75.2,79.6z
	 M108.9,79.6v75c0.1,2.2-1.7,4.1-3.9,4.2c-0.1,0-0.2,0-0.3,0h-8.4c-2.2,0.1-4.1-1.6-4.2-3.8c0-0.1,0-0.2,0-0.3v-75
	c-0.1-2.2,1.7-4.1,3.9-4.2c0.1,0,0.2,0,0.3,0h8.4c2.2-0.1,4.1,1.6,4.2,3.8C108.9,79.3,108.9,79.4,108.9,79.6L108.9,79.6z
	 M142.7,79.6v75c0.1,2.2-1.7,4.1-3.9,4.2c-0.1,0-0.2,0-0.3,0h-8.4c-2.2,0.1-4.1-1.6-4.2-3.8c0-0.1,0-0.2,0-0.3l0-75
	c-0.1-2.2,1.7-4.1,3.9-4.2c0.1,0,0.2,0,0.3,0h8.4c2.2-0.1,4.1,1.6,4.2,3.8C142.7,79.3,142.7,79.4,142.7,79.6L142.7,79.6z
	 M159.6,173.8V50.4H41.4v123.4c0,3.2,1,6.2,2.8,8.8c0.7,0.7,1.1,1.1,1.4,1.1h109.7c0.3,0,0.7-0.4,1.4-1.1
	C158.6,180.1,159.6,177,159.6,173.8L159.6,173.8z M71,33.7H130l-6.3-15.2c-0.5-0.7-1.3-1.2-2.2-1.4H79.7c-0.9,0.2-1.7,0.7-2.2,1.4
	L71,33.7z M193.4,37.9v8.3c0.1,2.2-1.7,4.1-3.9,4.2c-0.1,0-0.2,0-0.3,0h-12.7v123.4c0,7.2-2.1,13.4-6.2,18.7
	c-4.1,5.2-9.1,7.9-14.9,7.9H45.6c-5.8,0-10.8-2.5-14.9-7.6c-4.1-5.1-6.2-11.2-6.2-18.4v-124H11.9c-2.2,0.1-4.1-1.6-4.2-3.8
	c0-0.1,0-0.2,0-0.3v-8.3c-0.1-2.2,1.7-4.1,3.9-4.2c0.1,0,0.2,0,0.3,0h40.8L61.9,12C63.2,8.8,65.5,6,69,3.8s6.9-3.4,10.4-3.4h42.2
	c3.5,0,7,1.1,10.4,3.4s5.8,5,7.1,8.2l9.2,21.7h40.8c2.2-0.1,4.1,1.6,4.2,3.8C193.4,37.7,193.4,37.8,193.4,37.9z"/>
</svg>
