<?xml version="1.0" encoding="utf-8"?>
<!-- Generator: Adobe Illustrator 24.3.0, SVG Export Plug-In . SVG Version: 6.00 Build 0)  -->
<svg version="1.1" id="图层_1" xmlns="http://www.w3.org/2000/svg" xmlns:xlink="http://www.w3.org/1999/xlink" x="0px" y="0px"
	 viewBox="0 0 200.4 200" style="enable-background:new 0 0 200.4 200;" xml:space="preserve">
<path d="M67.7,32.6h123.2c5.3,0,9.5-4.3,9.5-9.5s-4.3-9.5-9.5-9.5H67.7c-5.3,0-9.5,4.3-9.5,9.5S62.4,32.6,67.7,32.6z M67.7,108.7
	h122.7c5.3,0,9.5-4.3,9.5-9.5c0-5.3-4.3-9.5-9.5-9.5H67.7c-5.3,0-9.5,4.3-9.5,9.5C58.1,104.4,62.4,108.7,67.7,108.7z M190.9,166.2
	H67.7c-5.3,0-9.5,4.3-9.5,9.5s4.3,9.5,9.5,9.5h123.2c5.3,0,9.5-4.3,9.5-9.5S196.1,166.2,190.9,166.2z"/>
<path d="M0,23.1c0,10.5,8.5,19.1,19.1,19.1s19.1-8.5,19.1-19.1S29.6,4,19.1,4S0,12.5,0,23.1z"/>
<path d="M0,99.1c0,10.5,8.5,19.1,19.1,19.1s19.1-8.5,19.1-19.1S29.6,80,19.1,80S0,88.5,0,99.1z"/>
<path d="M0,175.6c0,10.5,8.5,19.1,19.1,19.1s19.1-8.5,19.1-19.1c0-10.5-8.5-19.1-19.1-19.1S0,165.1,0,175.6z"/>
</svg>
