<?xml version="1.0" encoding="utf-8"?>
<!-- Generator: Adobe Illustrator 24.3.0, SVG Export Plug-In . SVG Version: 6.00 Build 0)  -->
<svg version="1.1" id="图层_1" xmlns="http://www.w3.org/2000/svg" xmlns:xlink="http://www.w3.org/1999/xlink" x="0px" y="0px"
	 viewBox="0 0 200 200" style="enable-background:new 0 0 200 200;" xml:space="preserve">
<style type="text/css">
	.st0{fill:#575B66;}
</style>
<path  d="M41.9,109.9c-10.3,0-18.7-8.4-18.7-18.7s8.4-18.7,18.7-18.7s18.7,8.4,18.7,18.7S52.2,109.9,41.9,109.9z"/>
<path  d="M98.1,109.9c-10.3,0-18.7-8.4-18.7-18.7s8.4-18.7,18.7-18.7s18.7,8.4,18.7,18.7S108.4,109.9,98.1,109.9z"/>
<path  d="M154.4,109.9c-10.3,0-18.7-8.4-18.7-18.7s8.4-18.7,18.7-18.7c10.3,0,18.7,8.4,18.7,18.7
	S164.7,109.9,154.4,109.9z"/>
</svg>
