<?xml version="1.0" encoding="utf-8"?>
<!-- Generator: Adobe Illustrator 24.3.0, SVG Export Plug-In . SVG Version: 6.00 Build 0)  -->
<svg version="1.1" id="图层_1" xmlns="http://www.w3.org/2000/svg" xmlns:xlink="http://www.w3.org/1999/xlink" x="0px" y="0px"
	 viewBox="0 0 200.4 200" style="enable-background:new 0 0 200.4 200;" xml:space="preserve">
<path d="M149.2,19.4h29c5.3,0,9.7,4.3,9.7,9.7v0v161.3c0,5.3-4.3,9.7-9.7,9.7c0,0,0,0,0,0H23.4c-5.3,0-9.7-4.3-9.7-9.7l0,0V29
	c0-5.3,4.3-9.7,9.7-9.7h29V0h19.4v19.4h58.1V0h19.4V19.4z M52.5,77.4v19.4h96.8V77.4H52.5z M52.5,116.1v19.4h96.8v-19.4H52.5z"/>
</svg>
