<?xml version="1.0" encoding="utf-8"?>
<!-- Generator: Adobe Illustrator 24.3.0, SVG Export Plug-In . SVG Version: 6.00 Build 0)  -->
<svg version="1.1" id="图层_1" xmlns="http://www.w3.org/2000/svg" xmlns:xlink="http://www.w3.org/1999/xlink" x="0px" y="0px"
	 viewBox="0 0 200.4 200" style="enable-background:new 0 0 200.4 200;" xml:space="preserve">
<style type="text/css">
	
</style>
<path class="st0" d="M100.1,2C45.7,2,1.6,46.1,1.6,100.5c0,54.4,44.1,98.5,98.5,98.5s98.5-44.1,98.5-98.5S154.5,2,100.1,2z M137,119
	H93.9c-6.8,0-12.3-5.5-12.3-12.3V51.3c0-6.8,5.5-12.3,12.3-12.3c6.8,0,12.3,5.5,12.3,12.3v43.1h30.8c6.8,0,12.3,5.5,12.3,12.3
	C149.4,113.5,143.8,119,137,119z"/>
</svg>
