<?xml version="1.0" encoding="utf-8"?>
<!-- Generator: Adobe Illustrator 24.3.0, SVG Export Plug-In . SVG Version: 6.00 Build 0)  -->
<svg version="1.1" id="图层_1" xmlns="http://www.w3.org/2000/svg" xmlns:xlink="http://www.w3.org/1999/xlink" x="0px" y="0px"
	 viewBox="0 0 200.4 200" style="enable-background:new 0 0 200.4 200;" xml:space="preserve">
<path d="M183.5,106.1c-11-17.3-24.7-30.2-41.3-38.8c4.4,7.6,6.6,15.9,6.6,24.7c0,13.5-4.7,25.1-14.2,34.8
	c-9.5,9.6-20.9,14.4-34.3,14.4c-13.4,0-24.8-4.8-34.3-14.4c-9.5-9.6-14.2-21.2-14.2-34.8c0-8.9,2.2-17.1,6.6-24.7
	c-16.5,8.6-30.3,21.5-41.3,38.8c9.6,15,21.6,27,36.1,35.9c14.5,8.9,30.1,13.3,47,13.3s32.6-4.4,47-13.3
	C161.9,133,173.9,121.1,183.5,106.1L183.5,106.1z M105.5,63.9c0-1.5-0.5-2.7-1.5-3.7c-1-1-2.2-1.5-3.7-1.5c-9,0-16.8,3.3-23.2,9.8
	C70.7,75,67.4,82.9,67.4,92c0,1.5,0.5,2.7,1.5,3.7c1,1,2.2,1.5,3.7,1.5c1.5,0,2.7-0.5,3.7-1.5c1-1,1.5-2.3,1.5-3.7
	c0-6.3,2.2-11.7,6.6-16.1c4.4-4.5,9.7-6.7,15.9-6.7c1.4,0,2.7-0.5,3.7-1.5C105.1,66.6,105.6,65.4,105.5,63.9z M197.3,106.1
	c0,2.5-0.7,5-2.2,7.6c-10.1,16.8-23.7,30.3-40.8,40.5c-17.1,10.1-35.1,15.2-54.1,15.2c-19,0-37-5.1-54.1-15.3
	c-17.1-10.2-30.6-23.7-40.8-40.4c-1.4-2.6-2.2-5.1-2.2-7.6s0.7-5,2.2-7.6c10.1-16.8,23.7-30.2,40.8-40.4
	c17.1-10.2,35.1-15.3,54.1-15.3s37,5.1,54.1,15.3c17.1,10.2,30.6,23.7,40.8,40.4C196.6,101.1,197.3,103.6,197.3,106.1z"/>
</svg>
