<?xml version="1.0" encoding="utf-8"?>
<!-- Generator: Adobe Illustrator 24.3.0, SVG Export Plug-In . SVG Version: 6.00 Build 0)  -->
<svg version="1.1" id="图层_1" xmlns="http://www.w3.org/2000/svg" xmlns:xlink="http://www.w3.org/1999/xlink" x="0px" y="0px"
	 viewBox="0 0 200.4 200" style="enable-background:new 0 0 200.4 200;" xml:space="preserve">
<path d="M93,149.7c0-11.4,3.1-21.3,8.5-30.5c0-1.5,0-3.8,1.5-6.1c6.2-8.4,10-17.5,10-20.6c0,0,9.3-7.6,10-18.3
	c0.8-11.4-2.3-11.4-2.3-11.4c3.9-12.2,5.4-57.9-23.9-51.8C92.2,1,61.4-6.6,46.7,19.3c-6.9,13-10,29.7-4.6,44.2
	c0,0.8-2.3-0.8-2.3,5.3C39,75,42.1,84.1,45.2,88.7c1.5,0.8,3.9,2.3,5.4,3c0,0,1.5,11.4,10.8,22.1c2.3,8.4-6.2,13-6.2,13
	c-27.8,5.3-53.3,20.6-53.3,37.3v12.9c0,18.3,42.4,22.1,80.2,22.1c11.6,0,23.2-0.8,34-3C101.5,184.7,93,168.8,93,149.7L93,149.7z
	 M150.9,101.7c-27,0-48.6,21.3-48.6,48s21.6,48,48.6,48s48.6-21.3,48.6-48C199.5,123,177.9,101.7,150.9,101.7z M177.9,136
	l-26.2,38.1c-1.5,1.5-3.1,3-4.6,3s-3.9-0.8-4.6-2.3l-15.4-15.3c-1.5-1.5-1.5-4.6,0-6.1l3.9-3.8c1.5-1.5,4.6-1.5,6.2,0l8.5,8.4
	l20.1-29.7c1.5-2.3,4.6-2.3,6.2-1.5l4.6,3c0.8,0.8,1.5,1.5,2.3,3C178.6,133.7,178.6,135.2,177.9,136L177.9,136z"/>
</svg>
