<?xml version="1.0" encoding="utf-8"?>
<!-- Generator: Adobe Illustrator 24.3.0, SVG Export Plug-In . SVG Version: 6.00 Build 0)  -->
<svg version="1.1" id="图层_1" xmlns="http://www.w3.org/2000/svg" xmlns:xlink="http://www.w3.org/1999/xlink" x="0px" y="0px"
	 viewBox="0 0 200.4 200" style="enable-background:new 0 0 200.4 200;" xml:space="preserve">
<path d="M188.5,110.9h-121v11c0,6.1-4.9,11-11,11l0,0h-11c-6.1,0-11-4.9-11-11l0,0v-11h-22c-6.1,0-11-4.9-11-11s4.9-11,11-11h22v-11
	c0-6.1,4.9-11,11-11h11c6.1,0,11,4.9,11,11v11h121c6.1,0,11,4.9,11,11S194.6,110.9,188.5,110.9L188.5,110.9z M188.5,44.9h-33v11
	c0,6.1-4.9,11-11,11l0,0h-11c-6.1,0-11-4.9-11-11l0,0v-11h-110c-6.1,0-11-4.9-11-11c0-6.1,4.9-11,11-11c0,0,0,0,0,0h110v-11
	c0-6.1,4.9-11,11-11h11c6.1,0,11,4.9,11,11v11h33c6.1,0,11,4.9,11,11S194.6,44.9,188.5,44.9C188.5,44.9,188.5,44.9,188.5,44.9
	L188.5,44.9z M12.5,154.9h110v-11c0-6.1,4.9-11,11-11h11c6.1,0,11,4.9,11,11v11h33c6.1,0,11,4.9,11,11s-4.9,11-11,11h-33v11
	c0,6.1-4.9,11-11,11l0,0h-11c-6.1,0-11-4.9-11-11l0,0v-11h-110c-6.1,0-11-4.9-11-11S6.4,154.9,12.5,154.9z"/>
</svg>
