<?xml version="1.0" encoding="utf-8"?>
<!-- Generator: Adobe Illustrator 24.3.0, SVG Export Plug-In . SVG Version: 6.00 Build 0)  -->
<svg version="1.1" id="图层_1" xmlns="http://www.w3.org/2000/svg" xmlns:xlink="http://www.w3.org/1999/xlink" x="0px" y="0px"
	 viewBox="0 0 200.4 200" style="enable-background:new 0 0 200.4 200;" xml:space="preserve">
<path d="M89.9,75.3l8.7,20.1h81.2V19c0-10.1-8.5-18.4-19-18.4H51.2c-10.5,0-19,8.2-19,18.4v48.6h45.6C83,67.5,87.8,70.6,89.9,75.3z
	 M66.3,35.2c0-3.3,2.7-6,6-6h67.5c3.3,0,6,2.7,6,6s-2.7,6-6,6H72.3C69,41.1,66.3,38.5,66.3,35.2z"/>
<path d="M186,104.6H94.4l-8.7-20.9c-2-4.9-6.8-8.1-12.1-8.1H14.5c-7.2,0-13.1,5.9-13.1,13.1v27.4c0,0.4,0,0.8,0.1,1.2
	c0,0.4-0.1,0.8-0.1,1.2v66.7c0,3.7,1.5,7.2,4.1,9.8s6.1,4.1,9.8,4.1h170.6c3.7,0,7.2-1.5,9.8-4.1c2.6-2.6,4.1-6.1,4.1-9.8v-66.6
	c0-3.7-1.5-7.2-4.1-9.8C193.1,106.1,189.6,104.6,186,104.6L186,104.6z M33.6,155c-6.6,0-12.5-4-15-10c-2.5-6.1-1.1-13.1,3.5-17.7
	c4.6-4.6,11.7-6.1,17.7-3.5s10,8.5,10,15C49.8,147.7,42.5,155,33.6,155z"/>
</svg>
