<?xml version="1.0" encoding="utf-8"?>
<!-- Generator: Adobe Illustrator 24.3.0, SVG Export Plug-In . SVG Version: 6.00 Build 0)  -->
<svg version="1.1" id="图层_1" xmlns="http://www.w3.org/2000/svg" xmlns:xlink="http://www.w3.org/1999/xlink" x="0px" y="0px"
	 viewBox="0 0 200.4 200" style="enable-background:new 0 0 200.4 200;" xml:space="preserve">
<style type="text/css">
	.st0{}
</style>
<path class="st0" d="M199.9,169c0,3.5-2.8,6.3-6.2,6.3h-46.3c3.5-0.8,6.1-3.9,6.1-7.6c0,0,0-28.5-20.6-38.9
	c-8.8-4.4-9.4-3.6-13.8-4.6l0.1-12.4c0,0-4.8-3.7-6.3-15.4c-3,0.9-4-3.6-4.2-6.4c-0.2-2.7-1.7-11.3,1.9-10.5
	c-0.8-5.7-1.3-10.9-1-13.6c0.9-9.6,10.1-19.5,24.1-20.3c16.6,0.7,23,10.8,24,20.3c0.3,2.7-0.3,7.9-1.1,13.6
	c3.7-0.8,2.1,7.8,1.9,10.5c-0.2,2.8-1.2,7.3-4.2,6.4c-1.5,11.7-6.3,15.4-6.3,15.4l0.1,12.4c0,0,3,1.8,15.9,7.2
	c12.9,5.4,8.8,1.4,19.2,6.6C199.9,146.2,199.9,169,199.9,169L199.9,169z"/>
<path class="st0" d="M106.7,126.8c14.2,5.9,9.7,1.5,21.2,7.3c18.1,9.2,18.1,34.3,18.1,34.3c0,3.8-3.1,6.9-6.8,6.9H7.3
	c-3.8,0-6.8-3.1-6.8-6.9c0,0,0-25.1,18.1-34.3c11.5-5.8,7.1-1.1,21.1-7c14.2-5.9,17.5-8,17.5-8l0.1-13.7c0,0-5.3-4.1-6.9-17
	c-3.3,1-4.4-3.9-4.6-7.1c-0.2-3-1.9-12.4,2.1-11.6c-0.8-6.3-1.4-12-1.1-15c1-10.5,11.1-21.5,26.5-22.3c18.1,0.8,25.3,11.8,26.4,22.3
	c0.3,3-0.3,8.7-1.2,15c4-0.8,2.3,8.6,2.1,11.6c-0.2,3.1-1.3,8-4.6,7c-1.7,12.8-7,16.9-7,16.9l0.1,13.6
	C89.3,119,92.6,120.9,106.7,126.8L106.7,126.8z"/>
</svg>
