<?xml version="1.0" encoding="utf-8"?>
<!-- Generator: Adobe Illustrator 24.3.0, SVG Export Plug-In . SVG Version: 6.00 Build 0)  -->
<svg version="1.1" id="图层_1" xmlns="http://www.w3.org/2000/svg" xmlns:xlink="http://www.w3.org/1999/xlink" x="0px" y="0px"
	 viewBox="0 0 200.4 200" style="enable-background:new 0 0 200.4 200;" xml:space="preserve">
<style type="text/css">
	.st0{}
</style>
<path class="st0" d="M103.4,115.2c11.5,10.5,29.2,10.5,40.7,0c1.7-1.5,4.2-1.5,5.9,0c6.6,6,15.6,8.8,24.4,7.6c3.1-0.4,6.2-1.3,9-2.6
	v36.5c0,18.3-14.8,33.1-33.1,33.1H50.7c-18.3,0-33.2-14.8-33.2-33.1v-36.6c3.6,1.7,7.4,2.7,11.3,3c8.1,0.5,16.1-2.3,22-7.8
	c1.7-1.5,4.2-1.5,5.9,0c11.5,10.5,29.2,10.5,40.7,0C99.2,113.7,101.7,113.7,103.4,115.2L103.4,115.2L103.4,115.2z M165.8,7.5
	c7.1,0,13.4,4.4,15.9,11L198,67.2l0.5,1.5l0.2,0.7c1.4,4.7,1.6,9.8,0.5,14.6c-2.8,11.9-12.8,20.8-24.9,22.4
	c-8.9,1.2-17.8-1.6-24.4-7.6c-1.7-1.5-4.2-1.5-5.9,0c-11.5,10.5-29.2,10.5-40.7,0c-1.6-1.5-4.2-1.5-5.9,0
	c-11.5,10.5-29.2,10.5-40.7,0c-1.7-1.5-4.2-1.5-5.9,0c-6,5.5-14,8.3-22.1,7.8C14.6,105.7,2.9,94.8,1.1,80.7c-0.4-3.8,0-7.6,1.1-11.3
	l0.1-0.2c0.2-0.8,0.5-1.5,0.8-2.2l16.1-48.5c2.5-6.7,8.9-11.1,16-11L165.8,7.5L165.8,7.5z"/>
</svg>
