<?xml version="1.0" encoding="utf-8"?>
<!-- Generator: Adobe Illustrator 24.3.0, SVG Export Plug-In . SVG Version: 6.00 Build 0)  -->
<svg version="1.1" id="图层_1" xmlns="http://www.w3.org/2000/svg" xmlns:xlink="http://www.w3.org/1999/xlink" x="0px" y="0px"
	 viewBox="0 0 200.4 200" style="enable-background:new 0 0 200.4 200;" xml:space="preserve">
<path d="M5.7,46.9h188.4c2.8,0,5-2.2,5-5V27.9c0-2.8-2.2-5-5-5h-37.9V10.5c0-2.8-2.3-5-5-5h-14c-2.8,0-5,2.3-5,5v12.4H59.4V10.8
	c0-2.9-2.4-5.3-5.3-5.3H40.6c-2.9,0-5.3,2.4-5.3,5.3v12.1H5.7c-2.8,0-5,2.2-5,5v14.1C0.7,44.7,2.9,46.9,5.7,46.9z M49.9,60.7H4.6
	c-2.2,0-3.9,1.8-3.9,3.9V110c0,2.2,1.8,3.9,3.9,3.9h45.3c2.2,0,3.9-1.8,3.9-3.9V64.6C53.9,62.5,52.1,60.7,49.9,60.7z M49.9,127.8
	H4.6c-2.2,0-3.9,1.8-3.9,3.9V177c0,2.2,1.8,3.9,3.9,3.9h45.3c2.2,0,3.9-1.8,3.9-3.9v-45.3C53.9,129.5,52.1,127.8,49.9,127.8z
	 M101.8,127.8H77.4c-2.2,0-3.9,1.8-3.9,3.9V177c0,0.8,0.2,1.6,0.7,2.2c0.4-8,2.1-15.8,5.3-23.2c3.4-8.1,8.3-15.3,14.5-21.5
	C96.4,132,99,129.8,101.8,127.8z M195.2,113.9c2.2,0,3.9-1.8,3.9-3.9V64.6c0-2.2-1.8-3.9-3.9-3.9h-45.3c-0.9,0-1.7,0.3-2.4,0.8
	c17.8,2.7,31.5,18.2,31.5,36.7c0,5.6-1.3,10.9-3.5,15.6H195.2z M126.6,64.3c-0.2-2-1.9-3.6-3.9-3.6H77.4c-2.2,0-3.9,1.8-3.9,3.9V110
	c0,2.2,1.8,3.9,3.9,3.9h30.7c-2.2-4.8-3.5-10-3.5-15.6C104.6,83.2,113.7,70.1,126.6,64.3L126.6,64.3z"/>
<path d="M149.5,124c11.5-3.3,19.8-13.9,19.8-26.4c0-15.2-12.3-27.6-27.6-27.6s-27.6,12.3-27.6,27.6c0,12.6,8.4,23.1,19.8,26.4
	c-28.3,3.8-50.4,28.2-50.4,57.6v0.4c0,4.7,0.6,9.4,1.7,13.8h112.8c1.1-4.4,1.7-9,1.7-13.8v-0.4C199.8,152.2,177.8,127.8,149.5,124
	L149.5,124z"/>
</svg>
