<?xml version="1.0" encoding="utf-8"?>
<!-- Generator: Adobe Illustrator 24.3.0, SVG Export Plug-In . SVG Version: 6.00 Build 0)  -->
<svg version="1.1" id="图层_1" xmlns="http://www.w3.org/2000/svg" xmlns:xlink="http://www.w3.org/1999/xlink" x="0px" y="0px"
	 viewBox="0 0 200.4 200" style="enable-background:new 0 0 200.4 200;" xml:space="preserve">
<style type="text/css">
	.st0{}
</style>
<path class="st0" d="M134.1,82.2c-2.8,2.8-6.4,4.2-10.1,4.2s-7.3-1.4-10.1-4.2c-5.6-5.6-5.6-14.6,0-20.2l55.7-55.7
	c0.6-0.6,1.4-1.2,2.1-1.7c-2.9-2.9-6.8-4.6-11-4.6H31.2c-8.4,0-15.1,6.7-15.1,15.1v169.8c0,8.3,6.7,15.1,15.1,15.1H161
	c8.3,0,15.1-6.7,15.1-15.1V40.2L134.1,82.2z M42.6,65h37.1c3.9,0,7.1,3.2,7.1,7.1s-3.2,7.1-7.1,7.1H42.6c-3.9,0-7.1-3.2-7.1-7.1
	S38.6,65,42.6,65z M98.3,125.7H42.6c-3.9,0-7.1-3.2-7.1-7.1c0-3.9,3.2-7.1,7.1-7.1h55.7c3.9,0,7.1,3.2,7.1,7.1
	C105.4,122.5,102.2,125.7,98.3,125.7C98.3,125.7,98.3,125.7,98.3,125.7z"/>
<path class="st0" d="M123.7,79.2c-4,0-7.1-3.2-7.1-7.2c0-1.9,0.8-3.7,2.1-5l55.6-55.6c2.8-2.8,7.3-2.8,10.1,0
	c2.8,2.8,2.8,7.3,0,10.1l-55.7,55.7C127.3,78.6,125.5,79.2,123.7,79.2z"/>
</svg>
