<?xml version="1.0" encoding="utf-8"?>
<!-- Generator: Adobe Illustrator 24.3.0, SVG Export Plug-In . SVG Version: 6.00 Build 0)  -->
<svg version="1.1" id="图层_1" xmlns="http://www.w3.org/2000/svg" xmlns:xlink="http://www.w3.org/1999/xlink" x="0px" y="0px"
	 viewBox="0 0 200.4 200" style="enable-background:new 0 0 200.4 200;" xml:space="preserve">
<path d="M129.3,37.1c-1.5,0-2.7-0.5-3.7-1.5c-1-1-1.8-2.2-2.5-3.5c-0.7-1.3-1.2-2.7-1.5-4.1c-0.3-1.4-0.5-2.6-0.5-3.5V0h0.4
	c1.2,0,2.3,0.1,3.4,0.4c1.1,0.3,2.4,0.9,3.9,1.9c1.5,1,3.4,2.4,5.6,4.2c2.2,1.8,5,4.2,8.3,7.1c3.6,3.2,6.5,5.9,8.6,8.1
	c2.1,2.2,3.8,4.1,4.9,5.6c1.1,1.5,1.8,2.8,2.1,3.9c0.3,1.1,0.4,2,0.4,2.8v3.2H129.3L129.3,37.1z M191.4,131.1c0.4,1.1,0.7,2.4,0.8,4
	c0.1,1.6-0.5,3.1-2,4.6c-0.7,0.7-1.3,1.3-1.8,1.9s-1,1.1-1.4,1.5c-0.5,0.5-1,0.9-1.4,1.2l-17-16.8c0.8-0.7,1.7-1.5,2.7-2.4
	c1-0.9,1.8-1.7,2.5-2.2c1.6-1.5,3.3-2.1,5.2-1.9c1.9,0.2,3.4,0.6,4.6,1.3c1.3,0.7,2.8,1.8,4.3,3.5
	C189.4,127.5,190.6,129.3,191.4,131.1z M120.9,149.7c2.9,0,5.4-0.8,7.4-2.4l-38.7,40.3H34.5c-2.5,0-5.3-0.7-8.3-2.2
	c-3-1.5-5.8-3.4-8.4-5.8c-2.6-2.4-4.8-5.2-6.5-8.3c-1.7-3.1-2.6-6.4-2.6-9.7V25.7c0-2.8,0.6-5.7,1.9-8.8c1.3-3.1,3-5.8,5.2-8.3
	s4.7-4.5,7.5-6.2S29,0,32.1,0h76.4v25c0,2.5,0.4,5.3,1.2,8.2c0.8,2.9,2,5.6,3.7,8.1s3.8,4.5,6.5,6.2c2.7,1.7,5.9,2.5,9.6,2.5h29.1
	V116l-27.3,28.3c1.5-2.1,2.2-4.5,2.2-7c0-3.5-1.2-6.4-3.7-8.9c-2.5-2.5-5.4-3.7-8.9-3.7H46.1c-3.5,0-6.4,1.2-8.8,3.7
	s-3.6,5.4-3.6,8.9s1.2,6.4,3.6,8.8c2.4,2.4,5.3,3.6,8.8,3.6L120.9,149.7L120.9,149.7z M46.1,74.9c-3.5,0-6.4,1.2-8.8,3.7
	c-2.4,2.5-3.6,5.4-3.6,8.9c0,3.5,1.2,6.4,3.6,8.8s5.3,3.6,8.8,3.6h74.9c3.5,0,6.4-1.2,8.9-3.6c2.5-2.4,3.7-5.3,3.7-8.8
	c0-3.5-1.2-6.4-3.7-8.9c-2.5-2.5-5.4-3.7-8.9-3.7H46.1z M121.3,174.9l2.6-2.6l5-5c2-2,4.2-4.2,6.6-6.7c2.4-2.5,4.8-4.9,7.2-7.3
	c5.7-5.7,12.2-12.1,19.4-19.2l16.8,16.8l-19.4,19.4l-7.2,7.2l-6.6,6.6c-1.9,1.9-3.4,3.5-4.7,4.8s-2,2.1-2.1,2.2
	c-0.7,0.5-1.4,1.1-2.2,1.7s-1.6,1.1-2.4,1.5c-0.8,0.4-2,0.9-3.7,1.5c-1.7,0.6-3.4,1.2-5.1,1.7s-3.4,1-5,1.4
	c-1.6,0.4-2.8,0.7-3.6,0.8c-1.6,0.3-2.7,0.1-3.2-0.6c-0.5-0.7-0.7-1.8-0.4-3.4c0.1-0.8,0.4-2,0.8-3.6c0.4-1.6,0.9-3.2,1.4-4.9
	c0.5-1.7,1-3.2,1.5-4.7c0.5-1.5,0.8-2.5,1.1-3C118.9,177.7,120,176.2,121.3,174.9L121.3,174.9z"/>
</svg>
