<?xml version="1.0" encoding="utf-8"?>
<!-- Generator: Adobe Illustrator 24.3.0, SVG Export Plug-In . SVG Version: 6.00 Build 0)  -->
<svg version="1.1" id="图层_1" xmlns="http://www.w3.org/2000/svg" xmlns:xlink="http://www.w3.org/1999/xlink" x="0px" y="0px"
	 viewBox="0 0 200.4 200" style="enable-background:new 0 0 200.4 200;" xml:space="preserve">
<path d="M70.7,58.8H28.6c-11.6,0-21-9.5-21-21v-14c0-11.6,9.5-21,21-21h42.1c11.6,0,21,9.5,21,21v14C91.8,49.4,82.3,58.8,70.7,58.8z
	 M168.9,199.2h-42.1c-11.6,0-21-9.5-21-21v-14c0-11.6,9.5-21,21-21h42.1c11.6,0,21,9.5,21,21v14C190,189.7,180.5,199.2,168.9,199.2z
	 M168.9,129h-42.1c-11.6,0-21-9.5-21-21v-14c0-11.6,9.5-21,21-21h42.1c11.6,0,21,9.5,21,21v14C190,119.5,180.5,129,168.9,129z"/>
<path d="M112.6,178.1H49.7c-3.9,0-7-3.2-7-7s3.2-7,7-7h62.9V178.1z"/>
<path d="M49.7,178.1c-3.9,0-7-3.2-7-7V51.8h14v119.3C56.7,174.9,53.5,178.1,49.7,178.1z"/>
<path d="M49.7,94.1h63.1v14H49.7V94.1z"/>
</svg>
