<?xml version="1.0" encoding="utf-8"?>
<!-- Generator: Adobe Illustrator 24.3.0, SVG Export Plug-In . SVG Version: 6.00 Build 0)  -->
<svg version="1.1" id="图层_1" xmlns="http://www.w3.org/2000/svg" xmlns:xlink="http://www.w3.org/1999/xlink" x="0px" y="0px"
	 viewBox="0 0 200.4 200" style="enable-background:new 0 0 200.4 200;" xml:space="preserve">
<path d="M183,2.4h-166c-3.9,0-7.1,3.2-7.1,7.1V192c0,3.9,3.2,7,7.1,7h166.1c3.9,0,7.1-3.2,7.1-7.1V9.5C190.2,5.6,187,2.4,183,2.4
	L183,2.4z M149.2,14.7h16.4c4.5,0,8.2,3.7,8.2,8.2s-3.7,8.2-8.2,8.2h-16.4c-4.5,0-8.2-3.7-8.2-8.2S144.7,14.7,149.2,14.7z
	 M34.5,14.7h73.7c4.5,0,8.2,3.7,8.2,8.2s-3.7,8.2-8.2,8.2H34.5c-4.5,0-8.2-3.7-8.2-8.2S30,14.7,34.5,14.7z M45.4,182.6
	c-6.8,0-12.3-5.5-12.3-12.3s5.5-12.3,12.3-12.3s12.3,5.5,12.3,12.3S52.2,182.6,45.4,182.6z M45.4,138.7c-6.8,0-12.3-5.5-12.3-12.3
	c0-6.8,5.5-12.3,12.3-12.3s12.3,5.5,12.3,12.3C57.7,133.2,52.2,138.7,45.4,138.7z M63.4,76.4L47,92.8c-1.2,1.2-2.8,1.8-4.3,1.8
	s-3.1-0.6-4.3-1.8L27.5,81.9c-2.4-2.4-2.4-6.3,0-8.7c2.4-2.4,6.3-2.4,8.7,0l6.6,6.6l12-12c2.4-2.4,6.3-2.4,8.7,0
	C65.8,70.1,65.8,74,63.4,76.4L63.4,76.4z M165.6,178.5H91.9c-4.5,0-8.2-3.7-8.2-8.2s3.7-8.2,8.2-8.2h73.7c4.5,0,8.2,3.7,8.2,8.2
	S170.1,178.5,165.6,178.5z M91.9,118.2h57.3c4.5,0,8.2,3.7,8.2,8.2c0,4.5-3.7,8.2-8.2,8.2H91.9c-4.5,0-8.2-3.7-8.2-8.2
	C83.7,121.8,87.3,118.2,91.9,118.2z M83.7,80.2c0-4.5,3.7-8.2,8.2-8.2h57.3c4.5,0,8.2,3.7,8.2,8.2s-3.7,8.2-8.2,8.2H91.9
	C87.3,88.4,83.7,84.7,83.7,80.2z M182,51.6H18.1v-8.2H182V51.6z"/>
</svg>
