<?xml version="1.0" encoding="utf-8"?>
<!-- Generator: Adobe Illustrator 24.3.0, SVG Export Plug-In . SVG Version: 6.00 Build 0)  -->
<svg version="1.1" id="图层_1" xmlns="http://www.w3.org/2000/svg" xmlns:xlink="http://www.w3.org/1999/xlink" x="0px" y="0px"
	 viewBox="0 0 200.4 200" style="enable-background:new 0 0 200.4 200;" xml:space="preserve">
<path d="M23.4,10.8h92c1.6,0.1,3.2,0,4.7,0.4c3.5,0.8,6.5,3,8.3,6.1c1.2,2,1.8,4.2,1.8,6.5c0,52.7,0,105.4,0,158.1
	c4.7,0,9.4,0,14.1,0c-0.1-32.1,0-64.2,0-96.3c-0.1-3.2,1.1-6.3,3.1-8.7c2.4-2.9,6.1-4.6,9.9-4.6c6.5,0,12.9,0,19.4,0
	c1,0,2,0,3.1,0.1c3.5,0.5,6.8,2.5,8.8,5.4c1.5,2.2,2.4,4.8,2.4,7.5c0,32.2,0,64.4,0,96.5c2.3,0.1,4.9-0.5,6.9,0.9
	c2.3,1.4,3.2,4.5,2,6.9c-0.9,2-3,3.2-5.1,3.2H6.1c-1.7,0-3.4-0.6-4.4-1.9c-1.3-1.5-1.7-3.7-0.9-5.5c0.7-1.9,2.6-3.3,4.6-3.4
	c1.3-0.1,2.5,0,3.8,0c0-51.8,0-103.6,0-155.5c0-1.7-0.1-3.3,0.2-5c0.7-3.9,3.3-7.4,6.9-9.1C18.4,11.1,21,10.8,23.4,10.8 M33.1,33.5
	c-1.8,0.4-3.2,2.1-3.3,4c-0.1,1.8,1,3.5,2.6,4.2c0.9,0.4,1.9,0.3,2.9,0.3h68.9c1.1,0,2.3,0.1,3.2-0.5c1.8-0.9,2.8-3.1,2.3-5
	c-0.5-2-2.4-3.4-4.4-3.3c-23.3,0-46.5,0-69.8,0C34.8,33.4,33.9,33.3,33.1,33.5 M33.1,53.6c-1.2,0.3-2.3,1.2-2.8,2.3
	c-0.7,1.4-0.5,3.2,0.4,4.4c0.8,1.1,2.2,1.8,3.6,1.8c23.8,0,47.6,0,71.4,0c2.1,0,4-1.6,4.3-3.7c0.3-1.9-0.8-3.9-2.5-4.6
	c-1-0.5-2.2-0.4-3.3-0.4H35.6C34.7,53.4,33.9,53.4,33.1,53.6 M33.1,75.5c-1.8,0.4-3.2,2.1-3.3,4c-0.1,1.8,1.1,3.6,2.8,4.3
	c0.9,0.4,1.8,0.3,2.8,0.3c23.1,0,46.1,0,69.2,0c1.1,0,2.2,0,3.2-0.5c1.7-0.9,2.6-3,2.1-4.9c-0.5-2-2.4-3.4-4.4-3.3
	c-23.3,0-46.5,0-69.8,0C34.8,75.4,33.9,75.3,33.1,75.5 M163.8,96.4c-1.4,0.4-2.6,1.7-2.9,3.2c-0.3,1.4,0.1,2.9,1,3.9
	c0.8,0.9,2.1,1.4,3.3,1.4c1.7,0,3.3,0,5,0c1.4,0,2.8-0.7,3.6-2c0.9-1.3,1-3.2,0.1-4.6c-0.7-1.3-2.1-2.1-3.5-2.2c-1.4,0-2.8,0-4.1,0
	C165.4,96.2,164.6,96.1,163.8,96.4 M39.6,105.6c-3.7,0.8-6.6,4.3-6.6,8.1c0,2.6,0,5.2,0,7.8c0,3.3,2.1,6.4,5.1,7.8
	c1.2,0.6,2.6,0.8,3.9,0.8c4.8,0,9.6,0,14.3,0c2.3,0,4.5-0.9,6.1-2.5c1.7-1.6,2.6-3.8,2.6-6.1c0-2.5,0-5.1,0-7.6
	c0-2.4-1.1-4.7-2.9-6.3c-1.6-1.5-3.7-2.3-5.9-2.3c-4.7,0-9.4,0-14.1,0C41.3,105.3,40.4,105.4,39.6,105.6 M84.6,105.6
	c-2.9,0.7-5.3,2.9-6.2,5.7c-0.7,2-0.4,4.2-0.5,6.3c0.1,2.3-0.3,4.7,0.5,6.8c0.9,2.6,3.2,4.6,5.8,5.3c1.2,0.4,2.5,0.3,3.7,0.3
	c4.4,0,8.8,0,13.3,0c1.3,0,2.6-0.3,3.8-0.9c2.8-1.4,4.8-4.3,4.9-7.5c0-2.6,0-5.2,0-7.8c0-3-1.7-5.8-4.2-7.3
	c-1.4-0.8-2.9-1.2-4.5-1.2c-4.4,0-8.8,0-13.3,0C86.9,105.3,85.7,105.3,84.6,105.6 M163.8,117.9c-1.9,0.6-3.2,2.5-3,4.4
	c0.1,2,1.7,3.8,3.7,4c1.2,0.1,2.4,0,3.6,0c1.4-0.1,2.8,0.2,4.1-0.4c1.7-0.8,2.7-2.7,2.4-4.5c-0.2-2-1.9-3.6-3.9-3.8
	c-1.3-0.1-2.6,0-3.9,0C165.7,117.7,164.7,117.6,163.8,117.9 M163.8,139.4c-1.7,0.5-3,2.2-3,4c-0.1,1.7,1,3.4,2.5,4.1
	c1.4,0.6,2.9,0.3,4.3,0.4c1.5-0.1,3.1,0.3,4.5-0.4c1.6-0.7,2.6-2.5,2.4-4.3c-0.1-2-1.9-3.8-3.9-3.9c-1.3-0.1-2.6,0-3.9,0
	C165.7,139.3,164.7,139.1,163.8,139.4 M41.3,140.3c-2.7,0.1-5.3,1.5-6.9,3.8c-1,1.4-1.5,3.1-1.5,4.8c0,2.4,0,4.8,0,7.2
	c0,1.3,0.2,2.5,0.7,3.7c1.3,3.1,4.5,5.3,7.8,5.3c4.9,0,9.9,0,14.8,0c2.8,0,5.5-1.3,7.1-3.6c1.1-1.5,1.7-3.3,1.6-5.1
	c0-2.5,0-5.1,0-7.6c-0.1-3.4-2.4-6.6-5.5-7.8c-1.8-0.7-3.7-0.6-5.6-0.6C49.7,140.3,45.5,140.3,41.3,140.3 M86.3,140.3
	c-2.7,0.1-5.3,1.5-6.9,3.8c-1,1.4-1.5,3.1-1.5,4.8c0,2.5,0,4.9,0,7.4c0,1.2,0.3,2.5,0.8,3.6c1.3,3,4.5,5.1,7.8,5.1c5,0,10,0,15,0
	c3.6,0,7-2.5,8.1-5.9c0.6-1.7,0.4-3.5,0.5-5.2c0-1.7,0-3.5,0-5.2c-0.1-2.6-1.4-5.2-3.5-6.7c-1.5-1.1-3.3-1.7-5.2-1.7
	C96.3,140.3,91.3,140.3,86.3,140.3 M163.8,161c-1.7,0.5-2.9,2.1-3,3.8c-0.2,1.6,0.7,3.3,2.1,4.1c1.5,0.9,3.3,0.5,5,0.6
	c1.4-0.1,2.8,0.2,4.1-0.4c1.5-0.6,2.6-2.2,2.6-3.9c0.1-1.7-1-3.3-2.5-4c-1.3-0.6-2.8-0.3-4.2-0.4C166.5,160.8,165.1,160.6,163.8,161
	L163.8,161z"/>
</svg>
