<?xml version="1.0" encoding="utf-8"?>
<!-- Generator: Adobe Illustrator 24.3.0, SVG Export Plug-In . SVG Version: 6.00 Build 0)  -->
<svg version="1.1" id="图层_1" xmlns="http://www.w3.org/2000/svg" xmlns:xlink="http://www.w3.org/1999/xlink" x="0px" y="0px"
	 viewBox="0 0 200.4 200" style="enable-background:new 0 0 200.4 200;" xml:space="preserve">
<path d="M195.9,147.4l-6.6,2c0.2,1.4,0.4,2.8,0.4,4.2c0,1.4-0.2,2.8-0.5,4.2l6.6,2.1c1.6,0.4,2.8,1.5,3.6,2.9
	c0.8,1.4,0.9,3.1,0.4,4.6c-1,3.1-4.5,4.8-7.8,3.8l-6.7-2.1c-1.4,2.5-3.1,4.8-5.1,6.9l4.1,5.4c1,1.3,1.4,2.9,1.1,4.5
	c-0.3,1.6-1.2,2.9-2.5,3.8c-2.8,1.9-6.6,1.4-8.7-1.3l-4.1-5.4c-2.7,1.3-5.5,2.2-8.4,2.7v6.6c0,3.3-2.8,5.9-6.2,5.9
	c-3.4,0-6.2-2.7-6.2-5.9v-6.6c-2.9-0.5-5.7-1.4-8.4-2.7l-4.1,5.4c-2.1,2.7-5.9,3.2-8.7,1.3c-1.3-0.9-2.2-2.3-2.5-3.8
	c-0.3-1.6,0.1-3.2,1.1-4.5l4.1-5.4c-2-2-3.8-4.3-5.3-6.8l-6.5,2c-3.3,1-6.8-0.7-7.8-3.8c-1-3,0.6-6.4,3.7-7.4c0.1,0,0.2-0.1,0.3-0.1
	l6.5-2c-0.2-1.4-0.4-2.8-0.4-4.3c0-1.4,0.2-2.8,0.5-4.2l-6.6-2c-3.3-1.1-5-4.4-4-7.5c1-3.1,4.5-4.8,7.8-3.8l6.6,2.1
	c1.4-2.5,3.1-4.8,5.1-6.9l-4.1-5.4c-1.9-2.5-1.5-6.1,1-8.1c0.1-0.1,0.2-0.2,0.3-0.2c2.8-1.9,6.6-1.3,8.7,1.3l4.1,5.4
	c2.7-1.3,5.5-2.2,8.4-2.7V115c0-3.3,2.7-5.9,6.2-5.9c3.4,0,6.2,2.7,6.2,5.9v6.5c2.9,0.5,5.7,1.5,8.4,2.7l4.1-5.4
	c2.1-2.7,5.9-3.2,8.6-1.3c2.7,1.8,3.4,5.4,1.6,8c-0.1,0.1-0.1,0.2-0.2,0.3l-4.1,5.4c2,2,3.9,4.3,5.3,6.8l6.5-2
	c3.3-1,6.8,0.7,7.8,3.8C200.9,143,199.1,146.4,195.9,147.4L195.9,147.4z M155.6,132.8c-12,0-21.7,9.3-21.7,20.8
	c0,11.5,9.7,20.8,21.7,20.8c12,0,21.7-9.3,21.7-20.8C177.3,142.2,167.6,132.8,155.6,132.8L155.6,132.8z"/>
<path d="M156.9,13.1H142c0-4.3-4.1-7.5-8.4-7.5H7.8c-4.3,0-7.7,3.5-7.7,7.8c0,0,0,0,0,0v155.4c0,0,8.2,23.5,21.6,23.5h109.9
	c-8.9-3.9-16.2-10.6-20.9-19H23.1c0,0-7.9-2.7-7.9-8.1l91.9,0l0.3,0.7c-1.6-4.6-2.4-9.5-2.5-14.4c0-11.8,4.7-23.2,13.1-31.5
	c6.6-6.5,15-10.9,24.1-12.4l-0.6,0.1l0.4-82.9h7.5l0.1,82.2c5.3,0,10.3,0.9,15,2.6V21.8C164.4,21.8,163.2,13.1,156.9,13.1
	L156.9,13.1z M29.4,102.4H14.3V87.3h15.1V102.4z M29.4,74.2H14.3V59.1h15.1V74.2z M29.4,47.4H14.3V32.3h15.1V47.4z M127.4,102.4h-87
	V87.3h87V102.4z M127.4,74.2h-87V59.1h87V74.2z M127.4,47.4h-87V32.3h87V47.4z"/>
</svg>
