<?xml version="1.0" encoding="utf-8"?>
<!-- Generator: Adobe Illustrator 24.3.0, SVG Export Plug-In . SVG Version: 6.00 Build 0)  -->
<svg version="1.1" id="图层_1" xmlns="http://www.w3.org/2000/svg" xmlns:xlink="http://www.w3.org/1999/xlink" x="0px" y="0px"
	 viewBox="0 0 200.4 200" style="enable-background:new 0 0 200.4 200;" xml:space="preserve">
<style type="text/css">
	.st0{}
</style>
<path class="st0" d="M146.1,131.2c19.3,8,13.2,2,29,9.9c24.8,12.5,24.8,46.8,24.8,46.8c0,5.2-4.2,9.4-9.3,9.4H10.4
	c-5.2,0-9.3-4.2-9.3-9.4c0,0,0-34.3,24.8-46.8c15.7-7.9,9.7-1.5,28.9-9.5c19.3-8,23.8-10.9,23.8-10.9l0.1-18.6c0,0-7.2-5.6-9.4-23.1
	c-4.5,1.4-6-5.3-6.3-9.7c-0.3-4.1-2.6-16.9,2.9-15.8C64.8,45,64,37.2,64.4,33.1c1.4-14.3,15.1-29.4,36.2-30.5
	c24.8,1.1,34.6,16.1,36.1,30.5c0.4,4.1-0.4,11.8-1.6,20.4c5.4-1.1,3.1,11.7,2.9,15.8c-0.3,4.2-1.8,10.9-6.3,9.5
	c-2.3,17.4-9.5,23-9.5,23l0.1,18.5C122.4,120.6,126.9,123.2,146.1,131.2L146.1,131.2z"/>
</svg>
