<?xml version="1.0" encoding="utf-8"?>
<!-- Generator: Adobe Illustrator 24.3.0, SVG Export Plug-In . SVG Version: 6.00 Build 0)  -->
<svg version="1.1" id="图层_1" xmlns="http://www.w3.org/2000/svg" xmlns:xlink="http://www.w3.org/1999/xlink" x="0px" y="0px"
	 viewBox="0 0 200.4 200" style="enable-background:new 0 0 200.4 200;" xml:space="preserve">
<path d="M81.4,20.1c0,10.4,8.4,18.8,18.8,18.8S119,30.5,119,20.1s-8.4-18.8-18.8-18.8C89.8,1.3,81.4,9.8,81.4,20.1z"/>
<path d="M57.2,74.2L73,58.4l25.2-25.2l5.8-5.8c2-2,2.1-5.5,0-7.5c-2.1-1.9-5.4-2.1-7.5,0L80.6,35.8L55.5,60.9l-5.8,5.8
	c-2,2-2.1,5.5,0,7.5C51.8,76.1,55.1,76.2,57.2,74.2z"/>
<path d="M96.5,27.5l15.8,15.8l25.1,25.1l5.8,5.8c2,2,5.5,2.1,7.5,0c1.9-2.1,2.1-5.4,0-7.5l-15.9-15.8l-25.1-25.1L104,20
	c-2-2-5.5-2.1-7.5,0C94.6,22.1,94.4,25.4,96.5,27.5z"/>
<path d="M185.6,63H14.8C7.5,63,1.6,68.9,1.6,76.2l0,0v109.1c0,7.3,5.9,13.2,13.2,13.2c0,0,0,0,0,0h170.8c7.3,0,13.2-5.9,13.2-13.2
	c0,0,0,0,0,0V76.2C198.8,68.9,192.9,63,185.6,63z M31.6,100.8h66c3,0,5.2,2.4,5.3,5.3c0.1,2.9-2.5,5.3-5.3,5.3h-66
	c-3,0-5.2-2.4-5.3-5.3C26.2,103.2,28.9,100.8,31.6,100.8z M119.7,160.7h-0.2c-3.6,0.1-7.2,0-10.7,0H31.6c-3,0-5.2-2.4-5.3-5.3
	c-0.1-2.9,2.5-5.3,5.3-5.3h0.2c3.6-0.1,7.2,0,10.7,0h77.2c3,0,5.2,2.4,5.3,5.3C125.1,158.3,122.5,160.7,119.7,160.7L119.7,160.7z
	 M163.7,136h-0.2c-5.3,0.1-10.6,0-16,0H31.6c-3,0-5.2-2.4-5.3-5.3c-0.1-2.9,2.5-5.3,5.3-5.3h0.2c5.3-0.1,10.6,0,16,0h115.9
	c3,0,5.2,2.4,5.3,5.3C169.2,133.6,166.5,136,163.7,136z"/>
</svg>
