<?xml version="1.0" encoding="utf-8"?>
<!-- Generator: Adobe Illustrator 24.3.0, SVG Export Plug-In . SVG Version: 6.00 Build 0)  -->
<svg version="1.1" id="图层_1" xmlns="http://www.w3.org/2000/svg" xmlns:xlink="http://www.w3.org/1999/xlink" x="0px" y="0px"
	 viewBox="0 0 200.4 200" style="enable-background:new 0 0 200.4 200;" xml:space="preserve">
<path d="M188.4,162.7c3.2-3.2,3.2-8.5,0-11.7l-20.3-20.3c-3.2-3.2-8.5-3.2-11.7,0s-3.2,8.5,0,11.7l6.2,6.2h-37.5
	c-4.6,0-8.3,3.7-8.3,8.3s3.7,8.3,8.3,8.3h37.5l-6.2,6.2c-3.2,3.2-3.2,8.5,0,11.7s8.5,3.2,11.7,0L188.4,162.7L188.4,162.7z"/>
<path d="M123.7,184.2c-10.4,0-19-8.5-19-19c0-10.4,8.5-19,19-19H151c-3.4-4-4.3-9.4-2.8-14.2l-26.3-11.2v-18.4
	c6.8-3.4,9.5-23.1,9.5-23.1c7.8,0.3,6.7-14.7,6.8-20.9s-3.2-5-3.2-5c1.8-11.9,1-21,1-21c-4.7-29.3-35.6-29.6-35.6-29.6l0,3.3l0-3.3
	c0,0-31,0.3-35.6,29.6c0,0-0.8,9.1,1,21c0,0-3.3-1.2-3.2,5s-1,21.2,6.8,20.9c0,0,2.8,19.7,9.5,23.1v18.4L44,135.7
	c0,0-36.6,2.6-41.8,39.9c0,0-6.1,21.5,7.2,21.5h138.4c-1-4.4,0.1-9.2,3.2-12.8L123.7,184.2L123.7,184.2z M199,178.2l-18.8,18.8h11
	C201.6,197.1,200.1,184,199,178.2L199,178.2z"/>
</svg>
