<?xml version="1.0" encoding="utf-8"?>
<!-- Generator: Adobe Illustrator 24.3.0, SVG Export Plug-In . SVG Version: 6.00 Build 0)  -->
<svg version="1.1" id="图层_1" xmlns="http://www.w3.org/2000/svg" xmlns:xlink="http://www.w3.org/1999/xlink" x="0px" y="0px"
	 viewBox="0 0 200.4 200" style="enable-background:new 0 0 200.4 200;" xml:space="preserve">
<path d="M154.4,0H44.5C35.4,0,28,7.4,28,16.5v167c0,9.1,7.4,16.5,16.5,16.5h109.8c9.1,0,16.5-7.4,16.5-16.5v-167
	C170.9,7.4,163.5,0,154.4,0z M106.4,185.7H92.1c-3.9,0-7.1-3.2-7.1-7.1s3.2-7.1,7.1-7.1h14.3c3.9,0,7.1,3.2,7.1,7.1
	S110.3,185.7,106.4,185.7z M156.4,153.1c0,2.2-1.8,4-4,4H46.1c-2.2,0-4-1.8-4-4V18.3c0-2.2,1.8-4,4-4h106.2c2.2,0,4,1.8,4,4V153.1z"
	/>
</svg>
