<?xml version="1.0" encoding="utf-8"?>
<!-- Generator: Adobe Illustrator 24.3.0, SVG Export Plug-In . SVG Version: 6.00 Build 0)  -->
<svg version="1.1" id="图层_1" xmlns="http://www.w3.org/2000/svg" xmlns:xlink="http://www.w3.org/1999/xlink" x="0px" y="0px"
	 viewBox="0 0 200.4 200" style="enable-background:new 0 0 200.4 200;" xml:space="preserve">
<path d="M61.6,62.4h51c4.6,0,8.4-3.8,8.4-8.4V15.2c0-4.6-3.8-8.4-8.4-8.4h-51c-4.6,0-8.4,3.8-8.4,8.4V54
	C53.2,58.6,57,62.4,61.6,62.4z"/>
<path d="M158.2,1.6h-18.4v65c0,2.7-2.2,5-5,5H38.1c-2.7,0-5-2.2-5-5l0.4-65H18.1c-7.4,0-13.5,6-13.5,13.5v169.9
	c0,7.4,6,13.5,13.5,13.5h164.2c7.4,0,13.5-6,13.5-13.5V44L158.2,1.6z M170.9,172c0,3.9-3.2,7.2-7.2,7.2H39.8c-3.9,0-7.2-3.2-7.2-7.2
	V98c0-3.9,3.2-7.2,7.2-7.2h123.8c3.9,0,7.2,3.2,7.2,7.2V172L170.9,172z"/>
<path d="M147.4,116.8H53.7c-3.6,0-6.5,2.9-6.5,6.5s2.9,6.5,6.5,6.5h93.8c3.6,0,6.5-2.9,6.5-6.5S151,116.8,147.4,116.8z M147.4,150.4
	H53.7c-3.6,0-6.5,2.9-6.5,6.5s2.9,6.5,6.5,6.5h93.8c3.6,0,6.5-2.9,6.5-6.5S151,150.4,147.4,150.4z"/>
</svg>
