<?xml version="1.0" encoding="utf-8"?>
<!-- Generator: Adobe Illustrator 24.3.0, SVG Export Plug-In . SVG Version: 6.00 Build 0)  -->
<svg version="1.1" id="图层_1" xmlns="http://www.w3.org/2000/svg" xmlns:xlink="http://www.w3.org/1999/xlink" x="0px" y="0px"
	 viewBox="0 0 200.4 200" style="enable-background:new 0 0 200.4 200;" xml:space="preserve">
<style type="text/css">
	.st0{fill:;}
</style>
<path class="st0" d="M152.9,86.5V35l33.5,32.2c3.1,3.1,8.1,3,11.1-0.1c3.1-3.1,3-8.1-0.1-11.1c0,0-0.1-0.1-0.1-0.1L156,16.2
	c-6.6-6.3-17.1-6.2-23.6,0.2l-27.9,27.9C94.3,17.3,64.1,3.6,37,13.8S-3.7,54.3,6.5,81.4c6.5,17.3,21.6,29.8,39.8,33.1v16.9h-37
	c-4.3-0.2-8,3.2-8.1,7.5s3.2,8,7.5,8.1c0.2,0,0.4,0,0.6,0h37v34.1c0,4.3,3.5,7.9,7.9,7.9c4.3,0,7.9-3.5,7.9-7.9V147h32.4
	c4.7,28.6,31.7,47.9,60.3,43.2c28.6-4.7,47.9-31.7,43.2-60.3C194,107.1,175.8,89.5,152.9,86.5L152.9,86.5z M18.9,63
	c-0.1-20.3,16.3-36.8,36.6-36.8c20.3-0.1,36.8,16.3,36.8,36.6S76,99.5,55.7,99.6c0,0-0.1,0-0.1,0C35.3,99.6,18.9,83.3,18.9,63z
	 M94.1,131.4H62v-16.5c26.2-3.2,45.9-25.4,46-51.7L137.1,34v52.8C114.6,90.7,97.2,108.7,94.1,131.4z M146.1,174.9
	c-20.2-0.1-36.5-16.5-36.4-36.7s16.5-36.5,36.7-36.4c20.1,0.1,36.4,16.4,36.4,36.6C182.7,158.5,166.3,174.9,146.1,174.9z"/>
</svg>
