<?xml version="1.0" encoding="utf-8"?>
<!-- Generator: Adobe Illustrator 24.3.0, SVG Export Plug-In . SVG Version: 6.00 Build 0)  -->
<svg version="1.1" id="图层_1" xmlns="http://www.w3.org/2000/svg" xmlns:xlink="http://www.w3.org/1999/xlink" x="0px" y="0px"
	 viewBox="0 0 200.4 200" style="enable-background:new 0 0 200.4 200;" xml:space="preserve">
<style type="text/css">
	.st0{fill:#FF08BA;}
</style>
<path class="st0" d="M140.7,140h-30v-20.9c28.4-4.8,50-29.4,50-59.1c0-33.1-26.9-60-60-60s-60,26.9-60,60c0,29.7,21.6,54.3,50,59.1
	V140h-30c-5.5,0-10,4.5-10,10s4.5,10,10,10h30v30c0,5.5,4.5,10,10,10c5.5,0,10-4.5,10-10v-30h30c5.5,0,10-4.5,10-10
	S146.2,140,140.7,140z M60.7,60c0-22.1,17.9-40,40-40s40,17.9,40,40s-17.9,40-40,40S60.7,82.1,60.7,60z"/>
</svg>
