<?xml version="1.0" encoding="utf-8"?>
<!-- Generator: Adobe Illustrator 24.3.0, SVG Export Plug-In . SVG Version: 6.00 Build 0)  -->
<svg version="1.1" id="图层_1" xmlns="http://www.w3.org/2000/svg" xmlns:xlink="http://www.w3.org/1999/xlink" x="0px" y="0px"
	 viewBox="0 0 200.4 200" style="enable-background:new 0 0 200.4 200;" xml:space="preserve">
<style type="text/css">
	.st0{fill:#2C9EF7;}
	.st1{fill:#E5F0FF;}
	.st2{fill:#FFFFFF;}
</style>
<path class="st0" d="M25.8,0h105l50,50.5v144.6c0,3.1-2.5,5.6-5.6,5.6H25.8c-3.1,0-5.6-2.5-5.6-5.6V5.6C20.2,2.5,22.7,0,25.8,0z"/>
<path class="st1" d="M130.8,0v44.9c0,3.1,2.5,5.6,5.6,5.6h44.4L130.8,0z"/>
<path class="st2" d="M141,161.5c4.8,5.3,13.6,1.9,13.6-5.3V72.8H139V136l-31.2-34.2c-3.1-3.4-8.5-3.4-11.6,0L65,136V72.8H49.4v83.4
	c0,7.2,8.8,10.6,13.6,5.3l39-42.7L141,161.5z"/>
</svg>
