<?xml version="1.0" encoding="utf-8"?>
<!-- Generator: Adobe Illustrator 24.3.0, SVG Export Plug-In . SVG Version: 6.00 Build 0)  -->
<svg version="1.1" id="图层_1" xmlns="http://www.w3.org/2000/svg" xmlns:xlink="http://www.w3.org/1999/xlink" x="0px" y="0px"
	 viewBox="0 0 200.4 200" style="enable-background:new 0 0 200.4 200;" xml:space="preserve">
<style type="text/css">
	.st0{fill:#3495ff;}
	.st1{opacity:0.2;fill:#FFFFFF;enable-background:new    ;}
</style>
<path class="st0" d="M27.6,80.5L83,108.7c5.5,2.8,8.9,7.9,8.9,13.5v56.3c0,12-14.8,19.5-26.6,13.5L9.9,163.8
	C4.4,161,1,155.9,1,150.3V94C1,82,15.8,74.5,27.6,80.5z M199.3,94v56.4c0,5.6-3.4,10.7-8.9,13.5L135,192c-11.8,6-26.6-1.5-26.6-13.5
	v-56.3c0-5.6,3.4-10.7,8.9-13.5l55.5-28.2C184.6,74.5,199.3,82,199.3,94L199.3,94z M108.2,6.2l50.1,29.3c10.7,6.2,10.7,21.8,0,28
	l-50.1,29.3c-4.9,2.9-11,2.9-16,0L42,63.5c-10.7-6.2-10.7-21.8,0-28L92.2,6.2C97.1,3.3,103.2,3.3,108.2,6.2z"/>
<path class="st1" d="M194.2,94.9c-5.6,27.5-12.8,46.7-21.4,57.4c-8.6,10.8-21.3,21.7-37.9,32.8c-11.8,6-26.4,5.3-26.4-6.7v-56.3
	c0-5.6,3.4-10.7,8.9-13.5l55.5-28.2C184.6,74.5,194.2,82.9,194.2,94.9L194.2,94.9z M27.6,80.5L83,108.7c5.5,2.8,8.9,7.9,8.9,13.5
	v14.1c0,12-24.3,55.3-36.1,49.3l-46-21.8C4.4,161,1,155.9,1,150.3V94C1,82,15.8,74.5,27.6,80.5z M108.2,6.2l42.3,24.8
	c7.8,4.5,0,18.5-9.6,27.9L108.2,86c-4.9,2.9-15.1,7.2-20.1,4.3L42,63.5c-10.7-6.2-10.7-21.8,0-28L92.2,6.2
	C97.1,3.3,103.2,3.3,108.2,6.2z"/>
</svg>
