<?xml version="1.0" encoding="utf-8"?>
<!-- Generator: Adobe Illustrator 24.3.0, SVG Export Plug-In . SVG Version: 6.00 Build 0)  -->
<svg version="1.1" id="图层_1" xmlns="http://www.w3.org/2000/svg" xmlns:xlink="http://www.w3.org/1999/xlink" x="0px" y="0px"
	 viewBox="0 0 200.4 200" style="enable-background:new 0 0 200.4 200;" xml:space="preserve">
<style type="text/css">
	
</style>
<path class="st0" d="M129.1,200c-4.5,0-8.9-1.6-12.5-4.6l-28.4-23.9l-30.6,24.4c-3,2.4-7.1,2.8-10.5,1.2c-3.4-1.7-5.6-5.2-5.6-9
	l0.6-54.2l-26.3-23.2c-4.8-4-7.4-10.4-6.6-16.9c0.7-6.5,4.6-12.1,10.4-15.1L165.1,3.6c6.9-3.6,14.9-2.7,21,2.2
	c6,4.9,8.5,12.6,6.4,20.1l-44.6,159.9c-1.8,6.4-6.6,11.4-13,13.3C133,199.7,131,200,129.1,200z M88.4,148.8c2.3,0,4.5,0.8,6.4,2.3
	l34.1,28.7L173,21.9L29.2,96l29.5,26c2.2,1.9,3.4,4.7,3.4,7.5l-0.4,37.8L82.2,151C83.9,149.6,86.1,148.8,88.4,148.8L88.4,148.8z"/>
<path class="st0" d="M89.7,119c-2.5,0-5.1-1-7-2.9c-3.9-3.9-3.9-10.2,0-14l37.1-37.1c3.9-3.9,10.2-3.9,14,0c3.9,3.9,3.9,10.2,0,14
	l-37.1,37.1C94.8,118.1,92.2,119,89.7,119z"/>
</svg>
