<?xml version="1.0" encoding="utf-8"?>
<!-- Generator: Adobe Illustrator 24.3.0, SVG Export Plug-In . SVG Version: 6.00 Build 0)  -->
<svg version="1.1" id="图层_1" xmlns="http://www.w3.org/2000/svg" xmlns:xlink="http://www.w3.org/1999/xlink" x="0px" y="0px"
	 viewBox="0 0 200.4 200" style="enable-background:new 0 0 200.4 200;" xml:space="preserve">
<path d="M89.8,0h20v26.5h-20V0z"/>
<path d="M38.1,19.2l17.2-9.9l13.3,23l-17.2,9.9L38.1,19.2z"/>
<path d="M2.8,61.8l10-17.2l23,13.3L25.9,75C25.8,75,2.8,61.8,2.8,61.8z"/>
<path d="M163.7,57.7l23-13.3l10,17.2l-23,13.3L163.7,57.7z"/>
<path d="M131,32.3l13.3-23l17.2,10l-13.3,23L131,32.3z"/>
<path d="M189.3,179.2h-23.2v-73c0-36.6-29.7-66.3-66.3-66.3s-66.3,29.7-66.3,66.3v73H10.2c-1.8,0-3.3,1.5-3.3,3.3v13.3
	c0,1.8,1.5,3.3,3.3,3.3h179.2c1.8,0,3.3-1.5,3.3-3.3v-13.3C192.6,180.6,191.1,179.2,189.3,179.2z M127.2,105.6L93.5,145
	c-0.3,0.4-0.8,0.6-1.4,0.5c-1-0.1-1.6-1-1.5-1.8l3.9-27.6H73.4c-0.4,0-0.7-0.1-1.1-0.4c-0.7-0.6-0.8-1.6-0.2-2.3L105.9,74
	c0.3-0.4,0.8-0.6,1.4-0.5c1,0.1,1.6,1,1.5,1.8l-3.9,27.6h21c0.4,0,0.7,0.1,1.1,0.4C127.8,103.8,127.9,104.9,127.2,105.6z"/>
</svg>
