<?xml version="1.0" encoding="utf-8"?>
<!-- Generator: Adobe Illustrator 24.3.0, SVG Export Plug-In . SVG Version: 6.00 Build 0)  -->
<svg version="1.1" id="图层_1" xmlns="http://www.w3.org/2000/svg" xmlns:xlink="http://www.w3.org/1999/xlink" x="0px" y="0px"
	 viewBox="0 0 200.4 200" style="enable-background:new 0 0 200.4 200;" xml:space="preserve">
<path d="M99.3,49C71.7,49,49,71.7,49,99.3s22.7,50.3,50.3,50.3s50.3-22.7,50.3-50.3S126.8,49,99.3,49z M99.3,136.5
	c-20.6,0-37.2-16.6-37.2-37.2s16.6-37.2,37.2-37.2s37.2,16.6,37.2,37.2S119.8,136.5,99.3,136.5z"/>
<path d="M193.8,115.9c-5.7-3.5-9.2-9.6-9.2-16.6c0-7,3.5-12.7,9.2-16.6c3.9-2.6,5.7-7.4,4.4-12.2c-2.2-7.4-5.2-14.4-8.7-21
	c-2.2-3.9-7-6.6-11.8-5.2c-6.6,1.3-13.1-0.4-17.9-5.2s-6.6-11.4-5.2-17.9c0.9-4.4-1.3-9.2-5.2-11.8c-6.6-3.9-14-6.6-21-8.7
	c-4.4-1.3-9.6,0.4-12.2,4.4c-3.5,5.7-9.6,9.2-16.6,9.2c-7,0-12.7-3.5-16.6-9.2C80,0.9,75.2-0.9,70.4,0.4C63,2.6,56,5.7,49.4,9.2
	c-3.9,2.2-6.6,7-5.2,11.8c1.3,6.6-0.4,13.6-5.2,17.9c-4.8,4.8-11.4,6.6-17.9,5.2c-4.4-0.9-9.2,1.3-11.8,5.2c-3.9,6.6-6.6,14-8.7,21
	c-1.3,4.4,0.4,9.6,4.4,12.2c5.7,3.5,9.2,9.6,9.2,16.6c0,7-3.5,12.7-9.2,16.6c-3.9,2.6-5.7,7.4-4.4,12.2c2.2,7.4,5.2,14.4,8.7,21
	c2.2,3.9,7,6.1,11.8,5.2c6.6-1.3,13.6,0.4,17.9,5.2c4.8,4.8,6.6,11.4,5.2,17.9c-0.9,4.4,1.3,9.2,5.2,11.8c6.6,3.9,14,6.6,21,8.7
	c4.4,1.3,9.6-0.4,12.2-4.4c3.5-5.7,9.6-9.2,16.6-9.2c7,0,12.7,3.5,16.6,9.2c2.2,3.1,5.7,4.8,9.2,4.8c0.9,0,2.2,0,3.1-0.4
	c7.4-2.2,14.4-5.2,21-8.7c3.9-2.2,6.6-7,5.2-11.8c-1.3-6.6,0.4-13.6,5.2-17.9c4.8-4.8,11.4-6.6,17.9-5.2c4.4,0.9,9.2-1.3,11.8-5.2
	c3.9-6.6,6.6-14,8.7-21C199.4,123.3,197.7,118.5,193.8,115.9z M178.4,141.3c-10.5-1.7-21,1.7-28.4,9.2c-7.4,7.4-10.9,17.9-9.2,28.4
	c-4.8,2.6-10.1,4.8-15.3,6.6c-6.1-8.3-15.7-13.6-26.7-13.6c-10.5,0-20.1,4.8-26.7,13.6c-5.2-1.7-10.5-3.9-15.3-6.6
	c1.7-10.5-1.7-21-9.2-28.4c-7.4-7.4-17.9-10.9-28.4-9.2c-2.6-4.8-4.8-10.1-6.6-15.3c8.3-6.1,13.6-15.7,13.6-26.7
	c0-10.5-4.8-20.1-13.6-26.7c1.7-5.2,3.9-10.5,6.6-15.3c10.5,1.7,21-1.7,28.4-9.2c7.4-7.4,10.9-17.9,9.2-28.4
	c4.8-2.6,10.1-4.8,15.3-6.6c6.1,8.3,15.7,13.6,26.7,13.6c10.5,0,20.1-4.8,26.7-13.6c5.2,1.7,10.5,3.9,15.3,6.6
	c-1.7,10.5,1.7,21,9.2,28.4c7.4,7.4,17.9,10.9,28.4,9.2c2.6,4.8,4.8,10.1,6.6,15.3c-8.3,6.1-13.6,15.7-13.6,26.7
	c0,10.5,4.8,20.1,13.6,26.7C183.3,131.2,181.1,136.5,178.4,141.3z"/>
</svg>
