<?xml version="1.0" encoding="utf-8"?>
<!-- Generator: Adobe Illustrator 24.3.0, SVG Export Plug-In . SVG Version: 6.00 Build 0)  -->
<svg version="1.1" id="图层_1" xmlns="http://www.w3.org/2000/svg" xmlns:xlink="http://www.w3.org/1999/xlink" x="0px" y="0px"
	 viewBox="0 0 200.4 200" style="enable-background:new 0 0 200.4 200;" xml:space="preserve">
<path d="M20.6,11.6H169v77h10.6V8.4c0-4.1-3.3-7.4-7.4-7.4H17.4C13.3,1,10,4.3,10,8.4v184.2c0,4.1,3.3,7.4,7.4,7.4h78.1v-10.6H20.6
	V11.6z"/>
<path d="M39.4,93.4h95.3v11H39.4V93.4z M39.4,130.7h48.8v11H39.4V130.7z M58.7,45.5L36.8,65.9l7.6,8.1l14.1-13.1l13.8,13.8l28.2-28
	v14h11.1V27.9H77.6v11.1h14.8L72.2,59L58.7,45.5z M171,103.9l-49.7,50.4l-12.4,41l36.7-17l48.7-48.7L171,103.9z M179,129.2
	l-36.6,36.6l-8.5-8.6l36.7-37.2L179,129.2z M128.8,167.7l4.1,4.2l-6.3,2.9L128.8,167.7z"/>
</svg>
