<?xml version="1.0" encoding="utf-8"?>
<!-- Generator: Adobe Illustrator 24.3.0, SVG Export Plug-In . SVG Version: 6.00 Build 0)  -->
<svg version="1.1" id="图层_1" xmlns="http://www.w3.org/2000/svg" xmlns:xlink="http://www.w3.org/1999/xlink" x="0px" y="0px"
	 viewBox="0 0 200.4 200" style="enable-background:new 0 0 200.4 200;" xml:space="preserve">
<style type="text/css">
	.st0{fill:#333333;}
</style>
<path class="st0" d="M31,116.1c2.2,2,5.6,1.8,7.7-0.4c0,0,0,0,0.1-0.1L64.2,87l28.7,25.5c2.3,2,5.7,1.8,7.7-0.5
	c0.1-0.1,0.2-0.3,0.3-0.4L132.9,68l2,15.5c0.4,2.8,2.7,4.8,5.4,4.8c0.2,0,0.5,0,0.7-0.1c3-0.4,5.1-3.1,4.7-6.1L142,53l0-0.1
	c0,0,0-0.1,0-0.1l0-0.2c0,0,0,0,0-0.1c0-0.1,0-0.2,0-0.2v0l-0.1-0.2v0l-0.1-0.2v0l-0.1-0.2l0,0l-0.1-0.2l0-0.1l-0.1-0.2l-0.1-0.1
	l-0.1-0.1l-0.1-0.2l0-0.1c-0.4-0.6-0.8-1-1.4-1.4l-0.2-0.2l-0.1-0.1l-0.4-0.2l-0.1-0.1c-0.1-0.1-0.3-0.1-0.4-0.2l-0.1-0.1l-0.3-0.1
	l-0.2-0.1c-0.1,0-0.2,0-0.2,0c-0.1,0-0.2,0-0.3-0.1l-0.1,0l-0.5,0h0l-0.9,0l-29.1,3.6c-3,0.4-5.1,3.1-4.7,6.1c0.4,3,3.1,5.1,6.1,4.7
	l16.6-2.1l-29,39.6L67.4,75c-2.3-2-5.7-1.8-7.7,0.4c0,0,0,0,0,0l-29.2,32.9C28.5,110.7,28.7,114.1,31,116.1z"/>
<path class="st0" d="M178.5,114V25.6c0-13.1-10.6-23.7-23.7-23.7H23.7C10.6,1.9,0,12.5,0,25.6v145.7C0,184.4,10.7,195,23.7,195
	h113.9c23.3,9.5,49.9-1.7,59.4-25c2.2-5.4,3.4-11.3,3.4-17.1C200.4,137,192.1,122.2,178.5,114L178.5,114z M23.7,184.1
	c-7,0-12.8-5.7-12.8-12.8l0,0V25.6c0-7.1,5.7-12.8,12.8-12.8h131.1c7,0,12.7,5.7,12.7,12.8v83.5c-24.2-7-49.5,6.9-56.5,31.1
	c-0.2,0.6-0.4,1.3-0.5,1.9H34.6c-3,0-5.5,2.5-5.5,5.5c0,3,2.5,5.5,5.5,5.5h74.7c0,11.6,4.5,22.7,12.2,31L23.7,184.1L23.7,184.1
	L23.7,184.1z M154.9,187.5c-19.1,0-34.6-15.5-34.6-34.6v-0.8c0.6-18.7,15.9-33.5,34.6-33.6c5.5,0,10.8,1.3,15.7,3.8l3.5,1.8
	c15.9,10.6,20.2,32.1,9.6,48C177.2,181.7,166.4,187.5,154.9,187.5L154.9,187.5z"/>
<path class="st0" d="M172.9,158.7l-12.5-7.2l0-14.7c0-3-2.5-5.4-5.5-5.4c-3,0-5.4,2.5-5.4,5.5l0,0l0,14.6l-12.6,7.2
	c-2.6,1.6-3.3,5-1.7,7.5c1.5,2.4,4.6,3.3,7.1,2l12.7-7.2l12.5,7.2c2.6,1.5,5.9,0.7,7.4-1.9c0,0,0-0.1,0-0.1
	C176.4,163.5,175.5,160.2,172.9,158.7L172.9,158.7z"/>
</svg>
