<?xml version="1.0" encoding="utf-8"?>
<!-- Generator: Adobe Illustrator 24.3.0, SVG Export Plug-In . SVG Version: 6.00 Build 0)  -->
<svg version="1.1" id="图层_1" xmlns="http://www.w3.org/2000/svg" xmlns:xlink="http://www.w3.org/1999/xlink" x="0px" y="0px"
	 viewBox="0 0 200.4 200" style="enable-background:new 0 0 200.4 200;" xml:space="preserve">
<path d="M186.7,51.1v106.6c0,1.8-1.4,3.2-3.2,2.7l-15.5-2.7c-22.3-4.1-45.1-6.4-67.9-6.4s-45.5,2.3-67.4,5.9L17.3,160
	c-2.3,0.5-3.6-0.5-3.6-2.3V51.1c0-1.8,1.4-3.2,3.2-2.7l15.5,2.7c22.3,4.1,45.1,6.4,67.9,6.4s45.5-2.3,67.4-5.9l15.5-2.7
	C185.4,48.4,186.7,49.3,186.7,51.1z M191.3,33.4h-1.8l-24.1,4.6c-21.4,4.1-43.3,5.9-65.1,5.9S56.5,42,35.1,37.9l-24.1-4.6H9.1
	c-5,0-9.1,4.1-9.1,9.1v123.9c0,5,4.1,9.1,9.1,9.1h1.8l24.1-4.6c21.4-4.1,43.3-5.9,65.1-5.9s43.7,1.8,65.1,5.9l24.1,4.6h1.8
	c5,0,9.1-4.1,9.1-9.1V42.5C200.4,37.5,196.3,33.4,191.3,33.4z"/>
<path d="M81.5,97.6h-3.2v15.9H82c4.6,0,6.8-2.7,6.8-7.7C88.4,100.3,86.1,97.6,81.5,97.6z"/>
<path d="M170.3,63.9c-23.2,4.1-46.9,6.4-70.1,6.4S53.3,68,30.1,63.9l-2.7-0.5v80.2l2.7-0.5c23.2-4.1,46.5-6.4,70.1-6.4
	c23.2,0,46.9,2.3,70.1,6.4l2.7,0.5V63.4L170.3,63.9z"/>
</svg>
