<?xml version="1.0" encoding="utf-8"?>
<!-- Generator: Adobe Illustrator 24.3.0, SVG Export Plug-In . SVG Version: 6.00 Build 0)  -->
<svg version="1.1" id="图层_1" xmlns="http://www.w3.org/2000/svg" xmlns:xlink="http://www.w3.org/1999/xlink" x="0px" y="0px"
	 viewBox="0 0 200.4 200" style="enable-background:new 0 0 200.4 200;" xml:space="preserve">
<style type="text/css">
</style>
<path class="st0" d="M182.7,178.3h-165c-5.2,0-9.3,4.1-9.3,9.3s4.1,9.3,9.3,9.3h165c5.2,0,9.3-4.1,9.3-9.3
	C192,182.6,187.9,178.3,182.7,178.3z M106.6,4.3c-1.7-1.7-4.1-2.6-6.3-2.4c-2.2,0-4.6,0.7-6.3,2.4L37.7,60.6
	c-3.3,3.3-3.3,8.7,0,11.9c3.3,3.3,8.7,3.3,11.9,0l42.7-42.7v126.4c0,4.6,3.7,8.5,8.5,8.5s8.5-3.7,8.5-8.5V30.7L151,72.5
	c3.3,3.3,8.7,3.3,11.9,0c3.3-3.3,3.3-8.7,0-11.9L106.6,4.3z"/>
</svg>
