<?xml version="1.0" encoding="utf-8"?>
<!-- Generator: Adobe Illustrator 24.3.0, SVG Export Plug-In . SVG Version: 6.00 Build 0)  -->
<svg version="1.1" id="图层_1" xmlns="http://www.w3.org/2000/svg" xmlns:xlink="http://www.w3.org/1999/xlink" x="0px" y="0px"
	 viewBox="0 0 200.4 200" style="enable-background:new 0 0 200.4 200;" xml:space="preserve">
<style type="text/css">
	
</style>
<path class="st0" d="M137.1,81.5c-2.8,2.8-6.4,4.1-10,4.1c-3.6,0-7.3-1.4-10-4.1c-5.5-5.5-5.5-14.5,0-20l55.2-55.2
	c0.6-0.6,1.3-1.2,2.1-1.7c-2.9-2.9-6.8-4.6-10.9-4.6H35.2c-8.3,0-15,6.7-15,15v168.3c0,8.2,6.7,15,15,15h128.7c8.2,0,15-6.7,15-15
	V39.9L137.1,81.5z M46.4,64.4h36.8c3.9,0,7.1,3.2,7.1,7.1c0,3.9-3.2,7.1-7.1,7.1H46.4c-3.9,0-7.1-3.2-7.1-7.1
	C39.3,67.6,42.5,64.4,46.4,64.4z M101.6,124.6H46.4c-3.9,0-7.1-3.2-7.1-7.1c0-3.9,3.2-7.1,7.1-7.1h55.2c3.9,0,7.1,3.2,7.1,7.1
	C108.7,121.4,105.5,124.6,101.6,124.6C101.6,124.6,101.6,124.6,101.6,124.6z"/>
<path class="st0" d="M126.8,78.6c-3.9,0-7.1-3.2-7.1-7.1c0-1.9,0.8-3.7,2.1-5L177,11.3c2.8-2.8,7.3-2.8,10,0c2.8,2.8,2.8,7.3,0,10
	l-55.2,55.2C130.4,77.9,128.6,78.6,126.8,78.6z"/>
</svg>
