<?xml version="1.0" encoding="utf-8"?>
<!-- Generator: Adobe Illustrator 24.3.0, SVG Export Plug-In . SVG Version: 6.00 Build 0)  -->
<svg version="1.1" id="图层_1" xmlns="http://www.w3.org/2000/svg" xmlns:xlink="http://www.w3.org/1999/xlink" x="0px" y="0px"
	 viewBox="0 0 200.4 200" style="enable-background:new 0 0 200.4 200;" xml:space="preserve">
<style type="text/css">
	
</style>
<path  d="M75.2,160.7c-4.1,0-8.1-1.5-11.2-4.6l-46.8-46.8c-6.2-6.2-6.2-16.3,0-22.5c6.2-6.2,16.3-6.2,22.5,0l46.8,46.8
	c6.2,6.2,6.2,16.3,0,22.5C83.3,159.2,79.2,160.7,75.2,160.7z"/>
<path  d="M75.1,160.7c-4.1,0-8.1-1.5-11.2-4.6c-6.2-6.2-6.2-16.3,0-22.5l96.5-96.5c6.2-6.2,16.3-6.2,22.5,0
	c6.2,6.2,6.2,16.3,0,22.5l-96.5,96.5C83.2,159.2,79.2,160.7,75.1,160.7z"/>
</svg>
