<?xml version="1.0" encoding="utf-8"?>
<!-- Generator: Adobe Illustrator 24.3.0, SVG Export Plug-In . SVG Version: 6.00 Build 0)  -->
<svg version="1.1" id="图层_1" xmlns="http://www.w3.org/2000/svg" xmlns:xlink="http://www.w3.org/1999/xlink" x="0px" y="0px"
	 viewBox="0 0 200.4 200" style="enable-background:new 0 0 200.4 200;" xml:space="preserve">
<style type="text/css">
	
</style>
<path class="st0" d="M134.4,109.8h54.1c5.4,0,9.8,4.4,9.8,9.8v54.1c0,5.4-4.4,9.8-9.8,9.8h-54.1c-5.4,0-9.8-4.4-9.8-9.8v-54.1
	C124.6,114.2,129,109.8,134.4,109.8z"/>
<path class="st0" d="M1.6,48.3c0,20.4,16.5,36.9,36.9,36.9s36.9-16.5,36.9-36.9S58.8,11.4,38.5,11.4S1.6,27.9,1.6,48.3z"/>
<path class="st1" d="M189.1,57.5h-73.8c-5.1,0-9.2-4.1-9.2-9.2s4.1-9.2,9.2-9.2h73.8c5.1,0,9.2,4.1,9.2,9.2S194.2,57.5,189.1,57.5z"
	/>
<path class="st1" d="M189.1,57.5c-2.4,0-4.8-1-6.5-2.7L160,32.2c-3.6-3.6-3.6-9.4,0-13c3.6-3.6,9.4-3.6,13,0l22.6,22.6
	c3.6,3.6,3.6,9.4,0,13C193.9,56.6,191.6,57.5,189.1,57.5z"/>
<path class="st1" d="M166.5,80.1c-2.4,0-4.8-1-6.5-2.7c-3.6-3.6-3.6-9.4,0-13l22.6-22.6c3.6-3.6,9.4-3.6,13,0c3.6,3.6,3.6,9.4,0,13
	L173,77.4C171.3,79.2,169,80.1,166.5,80.1L166.5,80.1z"/>
<path class="st1" d="M84.6,155.9H10.8c-5.1,0-9.2-4.1-9.2-9.2c0-5.1,4.1-9.2,9.2-9.2h73.8c5.1,0,9.2,4.1,9.2,9.2
	C93.8,151.8,89.7,155.9,84.6,155.9z"/>
<path class="st1" d="M10.8,155.9c-2.4,0-4.8-1-6.5-2.7c-3.6-3.6-3.6-9.4,0-13l22.6-22.6c3.6-3.6,9.4-3.6,13,0c3.6,3.6,3.6,9.4,0,13
	l-22.6,22.6C15.6,155,13.2,155.9,10.8,155.9z"/>
<path class="st1" d="M33.4,178.5c-2.4,0-4.8-1-6.5-2.7L4.3,153.2c-3.6-3.6-3.6-9.4,0-13c3.6-3.6,9.4-3.6,13,0l22.6,22.6
	c3.6,3.6,3.6,9.4,0,13C38.2,177.6,35.8,178.5,33.4,178.5z"/>
</svg>
