<?xml version="1.0" encoding="utf-8"?>
<!-- Generator: Adobe Illustrator 24.3.0, SVG Export Plug-In . SVG Version: 6.00 Build 0)  -->
<svg version="1.1" id="图层_1" xmlns="http://www.w3.org/2000/svg" xmlns:xlink="http://www.w3.org/1999/xlink" x="0px" y="0px"
	 viewBox="0 0 200.4 200" style="enable-background:new 0 0 200.4 200;" xml:space="preserve">
<style type="text/css">
	
</style>
<path class="st0" d="M190.4,19.6H10c-5.5,0-10,4.5-10,10v30.1c0,5.5,4.5,10,10,10h180.4c5.5,0,10-4.5,10-10V29.6
	C200.4,24.1,195.9,19.6,190.4,19.6z M30.1,47.6c0,1-1,2-2,2H12c-1,0-2-1-2-2v-16c0-1,1-2,2-2h16c1,0,2,1,2,2V47.6z M130.3,57.7
	c0,1-1,2-2,2h-16c-1,0-2-1-2-2V31.6c0-1,1-2,2-2h16c1,0,2,1,2,2V57.7z M160.3,57.7c0,1-1,2-2,2h-16c-1,0-2-1-2-2V31.6c0-1,1-2,2-2
	h16c1,0,2,1,2,2V57.7z M190.4,57.7c0,1-1,2-2,2h-16c-1,0-2-1-2-2V31.6c0-1,1-2,2-2h16c1,0,2,1,2,2V57.7z M190.4,128.8H10
	c-5.5,0-10,4.5-10,10v30.1c0,5.5,4.5,10,10,10h180.4c5.5,0,10-4.5,10-10v-30.1C200.4,133.3,195.9,128.8,190.4,128.8z M30.1,156.9
	c0,1-1,2-2,2H12c-1,0-2-1-2-2v-16c0-1,1-2,2-2h16c1,0,2,1,2,2V156.9z M130.3,166.9c0,1-1,2-2,2h-16c-1,0-2-1-2-2v-26.1c0-1,1-2,2-2
	h16c1,0,2,1,2,2V166.9z M160.3,166.9c0,1-1,2-2,2h-16c-1,0-2-1-2-2v-26.1c0-1,1-2,2-2h16c1,0,2,1,2,2V166.9z M190.4,166.9
	c0,1-1,2-2,2h-16c-1,0-2-1-2-2v-26.1c0-1,1-2,2-2h16c1,0,2,1,2,2V166.9z M190.4,74.2H10c-5.5,0-10,4.5-10,10v30.1
	c0,5.5,4.5,10,10,10h180.4c5.5,0,10-4.5,10-10V84.2C200.4,78.7,195.9,74.2,190.4,74.2z M30.1,102.3c0,1-1,2-2,2H12c-1,0-2-1-2-2v-16
	c0-1,1-2,2-2h16c1,0,2,1,2,2V102.3z M130.3,112.3c0,1-1,2-2,2h-16c-1,0-2-1-2-2V86.2c0-1,1-2,2-2h16c1,0,2,1,2,2V112.3z
	 M160.3,112.3c0,1-1,2-2,2h-16c-1,0-2-1-2-2V86.2c0-1,1-2,2-2h16c1,0,2,1,2,2V112.3z M190.4,112.3c0,1-1,2-2,2h-16c-1,0-2-1-2-2
	V86.2c0-1,1-2,2-2h16c1,0,2,1,2,2V112.3z"/>
</svg>
