<?xml version="1.0" encoding="utf-8"?>
<!-- Generator: Adobe Illustrator 24.3.0, SVG Export Plug-In . SVG Version: 6.00 Build 0)  -->
<svg version="1.1" id="图层_1" xmlns="http://www.w3.org/2000/svg" xmlns:xlink="http://www.w3.org/1999/xlink" x="0px" y="0px"
	 viewBox="0 0 200.4 200" style="enable-background:new 0 0 200.4 200;" xml:space="preserve">
<path d="M12.2,3c-1.9,1-4.3,3.4-5.3,5.3c-1.7,3.2-1.8,8.1-1.8,91.9s0.1,88.7,1.8,91.9c1,1.9,3.4,4.3,5.3,5.3
	c3.2,1.7,7.5,1.8,73.7,1.8c77.4,0,75.3,0.2,79.2-6.2c1.9-3.1,2-5,2-38.2v-35l-21.9,22.5l-21.8,22.4l4.9,0.3c4,0.3,5.1,0.7,5.9,2.6
	c0.8,1.7,0.8,3,0,4.5c-1.1,1.9-2,2.1-10.9,2.1c-8.5,0-10.6,0.4-16.7,2.9c-9.5,4-23.9,8.1-28.4,8.1c-4.7,0-8.1-3.3-8.1-7.8v-3.2H55.3
	c-15.6,0-17.2-0.4-17.2-4.6c0-3.8,2-4.3,18.5-4.6l15.9-0.3l2.1-7c3.1-9.9,5-13.1,12.3-20.7l6.5-6.8H67.7c-15.8,0-26.5-0.4-27.7-1
	c-2.2-1.2-2.6-5.9-0.7-7.8c0.9-0.9,9.6-1.2,32.7-1.2h31.6l31.8-31.7l31.7-31.6V33.8c0-21.4-0.2-23.3-2-26.4
	c-3.9-6.4-1.8-6.2-79.2-6.2C19.7,1.2,15.4,1.3,12.2,3z M133.5,33.1c2.3,2.5,1.3,5.9-2.1,7.2c-3.3,1.2-87.4,1.2-90.7-0.1
	c-2-0.7-2.6-1.7-2.6-3.8c0-1.5,0.5-3.3,1.2-4c0.9-0.9,12.7-1.2,46.8-1.2C130,31.2,131.9,31.3,133.5,33.1z M131.4,76.1
	c3.2,1.3,4.1,3.9,2.2,6.7l-1.5,2.4H86.3c-34.3,0-46.1-0.3-47-1.2c-2.1-2.1-1.5-6.8,1.1-7.8C43.3,75,128.3,74.9,131.4,76.1
	L131.4,76.1z"/>
<path d="M168.6,63c-1.6,1.1-4.1,3.1-5.4,4.6l-2.5,2.6l3.5,3.7c1.9,2,7.3,7.8,12.1,12.8l8.8,9l4.7-4.8c4.4-4.4,4.8-5.1,4.8-9.6
	c0-5.6-3.3-11.3-9.7-16.4C180.1,61,173,60.2,168.6,63z M116.5,113.4c-23.3,23.5-32.6,33.5-34.1,36.8c-2.1,4.6-6.6,18.9-7.8,24.6
	c-0.8,4.3,1.4,6.5,5.8,5.7c7.2-1.3,24.5-7.4,28.7-10.2c2.5-1.6,18.2-16.6,34.9-33.3l30.3-30.5l-12.2-12.7
	c-6.7-6.9-12.5-12.6-12.9-12.6S134.1,95.7,116.5,113.4z"/>
</svg>
