<?xml version="1.0" encoding="utf-8"?>
<!-- Generator: Adobe Illustrator 24.3.0, SVG Export Plug-In . SVG Version: 6.00 Build 0)  -->
<svg version="1.1" id="图层_1" xmlns="http://www.w3.org/2000/svg" xmlns:xlink="http://www.w3.org/1999/xlink" x="0px" y="0px"
	 viewBox="0 0 200.4 200" style="enable-background:new 0 0 200.4 200;" xml:space="preserve">
<style type="text/css">
	
</style>
<path class="st0" d="M7.2,135.1h14.2c2.5,0.1,4.9-1,6.3-3.1l15.2-22.5l21.7,45.1c0.9,1.9,2.7,3.2,4.8,3.7c3.7,0.9,7.6-1,8.8-4.4
	L107.6,65l21.4,64.7c0.7,3,3.5,5.3,7,5.3h35.8c0.6,0,1.2-0.1,1.8-0.2c2.4,4.1,7.1,6.8,12.5,6.8c7.9,0,14.3-5.9,14.3-13.2
	c0-7.3-6.4-13.2-14.3-13.2c-5.4,0-10.1,2.8-12.5,6.8c-0.6-0.1-1.2-0.2-1.8-0.2h-30.5l-26.9-81.3c-1.1-3.5-5.1-5.5-8.9-4.4
	c-1.3,0.4-2.4,1.1-3.3,2c-0.7,0.7-1.2,1.5-1.6,2.5L70,133.2L50.7,93c-0.3-0.8-0.8-1.6-1.5-2.2c0,0-0.1-0.1-0.1-0.1l-0.1-0.1
	c-2-1.8-5.1-2.4-7.9-1.2c-1.5,0.6-2.7,1.7-3.5,3l-20,29.5H7.2c-4,0-7.2,3-7.2,6.6C0,132.1,3.2,135.1,7.2,135.1L7.2,135.1L7.2,135.1
	L7.2,135.1z"/>
</svg>
