<?xml version="1.0" encoding="utf-8"?>
<!-- Generator: Adobe Illustrator 24.3.0, SVG Export Plug-In . SVG Version: 6.00 Build 0)  -->
<svg version="1.1" id="图层_1" xmlns="http://www.w3.org/2000/svg" xmlns:xlink="http://www.w3.org/1999/xlink" x="0px" y="0px"
	 viewBox="0 0 200.4 200" style="enable-background:new 0 0 200.4 200;" xml:space="preserve">
<path d="M139.3,8.2H23.7C11.1,7.5-0.2,16.8-0.2,28.1v140.8c0,11.3,11.3,20.6,23.9,19.9h66.4c4,0,6-2,6.6-5.3c0,0-0.7-3.3-2-6.6
	c-1.3-4-5.3-9.3-7.3-15.9c-2.7-12-2-26.6,2.7-40.5c6-17.3,17.3-33.2,55.8-35.2c0.7,0.7,6.6,0,7.3,0.7c4.6,0.7,8.6-1.3,10-5.3V28.1
	C162.5,16.8,152.6,8.2,139.3,8.2z M78.9,126.4H43c-2,0-3.3-3.3-3.3-6.6c0-4,1.3-6.6,3.3-6.6h35.9c2,0,3.3,3.3,3.3,6.6
	C82.2,123.7,80.9,126.4,78.9,126.4z M110.7,89.2H47c-4,0-7.3-3.3-7.3-6.6c0-4,3.3-6.6,7.3-6.6h63.8c4,0,7.3,3.3,7.3,6.6
	C117.4,86.5,114.1,89.2,110.7,89.2z M116.7,52.7H46.3c-3.3,0-6.6-2.7-6.6-6.6s3.3-6.6,7.3-6.6h69.7c4,0,7.3,3.3,7.3,6.6
	C123.4,50,120,52.7,116.7,52.7z"/>
<path d="M197.7,133c-0.7-4-3.3-6.6-6.6-6.6h-0.7c-6,0-11.3-5.3-11.3-11.3c0-1.3,0.7-4,1.3-4.6c1.3-4,0-8-3.3-10l-13.3-7.3
	c-3.3-1.3-7.3-0.7-10,2c-2,2-6,5.3-9.3,5.3c-3.3,0-7.3-3.3-9.3-5.3c-2.7-2.7-6.6-3.3-10-2l-13.3,7.3c-3.3,2-4.6,6.6-2.7,10
	c0,0,0.7,2.7,0.7,4.6c0,6-5.3,11.3-11.3,11.3h-0.7c-3.3,0-6,2.7-6.6,6.6c-0.7,3.3-1.3,6.6-1.3,10.6c0,4.6,1.3,10,1.3,10.6
	c0.7,4,3.3,6.6,6.6,6.6h1.3c6,0,11.3,5.3,11.3,11.3c0,1.3-0.7,4-0.7,4.6c-1.3,4,0,8,3.3,10l13.3,7.3c3.3,1.3,7.3,0.7,10-2
	c1.3-2,6-5.3,9.3-5.3c3.3,0,7.3,4,9.3,6c2.7,2.7,6.6,3.3,10,2l13.3-7.3c3.3-2,4.6-6.6,2.7-10c-0.7-1.3-0.7-2.7-0.7-4.6
	c0-6,5.3-11.3,11.3-11.3h0.7c3.3,0,6-2.7,6.6-6.6c0,0,1.3-6,1.3-10.6C199.1,139,197.7,133.7,197.7,133L197.7,133z M143.9,162.3
	c-10.6,0-19.9-8.6-19.9-19.9c0-11.3,8.6-19.9,19.9-19.9c10.6,0,19.9,8.6,19.9,19.9C163.9,153.6,154.6,162.3,143.9,162.3z"/>
</svg>
