<?xml version="1.0" encoding="utf-8"?>
<!-- Generator: Adobe Illustrator 24.3.0, SVG Export Plug-In . SVG Version: 6.00 Build 0)  -->
<svg version="1.1" id="图层_1" xmlns="http://www.w3.org/2000/svg" xmlns:xlink="http://www.w3.org/1999/xlink" x="0px" y="0px"
	 viewBox="0 0 200.4 200" style="enable-background:new 0 0 200.4 200;" xml:space="preserve">
<style type="text/css">

</style>
<path class="st0" d="M170.4,130c-12.7,0-24.1,8-28.3,20h-63c-0.9-3.6-2.4-7.1-4.3-10.3l65.2-65.2c19,11.2,43.6,4.9,54.8-14.1
	c11.2-19,4.9-43.6-14.1-54.8s-43.6-4.9-54.8,14.1c-7.4,12.5-7.4,28.1,0,40.6l-65.2,65.2c-6.2-3.6-13.2-5.6-20.3-5.5V58.3
	C56,52.8,64.2,35.6,58.7,20C53.1,4.4,36-3.8,20.4,1.7S-3.4,24.4,2.1,40c3,8.5,9.7,15.3,18.3,18.3v67.1C1.3,136.4-5.3,160.9,5.8,180
	s35.5,25.7,54.7,14.6c9.3-5.4,16-14.2,18.7-24.6h63c5.5,15.6,22.7,23.8,38.3,18.3c15.6-5.5,23.8-22.7,18.3-38.3
	C194.4,138,183.1,130,170.4,130z"/>
</svg>
