<?xml version="1.0" encoding="utf-8"?>
<!-- Generator: Adobe Illustrator 24.3.0, SVG Export Plug-In . SVG Version: 6.00 Build 0)  -->
<svg version="1.1" id="图层_1" xmlns="http://www.w3.org/2000/svg" xmlns:xlink="http://www.w3.org/1999/xlink" x="0px" y="0px"
	 viewBox="0 0 200.4 200" style="enable-background:new 0 0 200.4 200;" xml:space="preserve">
<path d="M82.5,114.9H17.7c-8.9,0-16.2-7.4-16.2-16.4v-81c0-9,7.3-16.4,16.2-16.4h64.7c8.9,0,16.2,7.4,16.2,16.4v81
	C98.7,107.6,91.4,114.9,82.5,114.9z M186.3,27.4h-40.8c-7,0-12.8-5.8-12.8-12.9v-0.4c0-7.1,5.7-12.9,12.8-12.9h40.8
	c7,0,12.8,5.8,12.8,12.9v0.4C199,21.6,193.3,27.4,186.3,27.4z M186.3,70.9h-40.8c-7,0-12.8-5.8-12.8-12.9v-0.4
	c0-7.1,5.7-12.9,12.8-12.9h40.8c7,0,12.8,5.8,12.8,12.9v0.4C199,65,193.3,70.9,186.3,70.9z M186.3,114.3h-40.8
	c-7,0-12.8-5.8-12.8-12.9V101c0-7.1,5.7-12.9,12.8-12.9h40.8c7,0,12.8,5.8,12.8,12.9v0.4C199,108.5,193.3,114.3,186.3,114.3z
	 M182.8,198.7H17.7c-8.9,0-16.2-7.4-16.2-16.4v-23.5c0-9,7.3-16.4,16.2-16.4h165.1c8.9,0,16.2,7.4,16.2,16.4v23.5
	C199,191.3,191.7,198.7,182.8,198.7z"/>
</svg>
