<?xml version="1.0" encoding="utf-8"?>
<!-- Generator: Adobe Illustrator 24.3.0, SVG Export Plug-In . SVG Version: 6.00 Build 0)  -->
<svg version="1.1" id="图层_1" xmlns="http://www.w3.org/2000/svg" xmlns:xlink="http://www.w3.org/1999/xlink" x="0px" y="0px"
	 viewBox="0 0 200.4 200" style="enable-background:new 0 0 200.4 200;" xml:space="preserve">
<path d="M132.6,137.5v-18.8c0-6.9,5.6-12.5,12.5-12.5c6.9,0,12.5,5.6,12.5,12.5v18.8h18.8c6.9,0,12.5,5.6,12.5,12.5
	c0,6.9-5.6,12.5-12.5,12.5h-18.8v18.8c0,6.9-5.6,12.5-12.5,12.5c-6.9,0-12.5-5.6-12.5-12.5v-18.8h-18.8c-6.9,0-12.5-5.6-12.5-12.5
	c0-6.9,5.6-12.5,12.5-12.5H132.6z M188.9,100H99.3c-6.9,0-12.5,5.6-12.5,12.5V125H26.4c-6.9,0-12.5-5.6-12.5-12.5v-25
	c0-6.9,5.6-12.5,12.5-12.5h150c6.9,0,12.5,5.6,12.5,12.5L188.9,100L188.9,100z M86.8,150v50H26.4c-6.9,0-12.5-5.6-12.5-12.5v-25
	c0-6.9,5.6-12.5,12.5-12.5L86.8,150L86.8,150z M26.4,0h150c6.9,0,12.5,5.6,12.5,12.5v25c0,6.9-5.6,12.5-12.5,12.5h-150
	c-6.9,0-12.5-5.6-12.5-12.5v-25C13.8,5.6,19.4,0,26.4,0z M55.5,12.5C48.6,12.5,43,18.1,43,25s5.6,12.5,12.5,12.5
	C62.4,37.5,68,31.9,68,25S62.4,12.5,55.5,12.5z M55.5,87.5C48.6,87.5,43,93.1,43,100c0,6.9,5.6,12.5,12.5,12.5
	c6.9,0,12.5-5.6,12.5-12.5S62.4,87.5,55.5,87.5z M55.5,162.5c-6.9,0-12.5,5.6-12.5,12.5c0,6.9,5.6,12.5,12.5,12.5
	c6.9,0,12.5-5.6,12.5-12.5C68,168.1,62.4,162.5,55.5,162.5z"/>
</svg>
