<?xml version="1.0" encoding="utf-8"?>
<!-- Generator: Adobe Illustrator 24.3.0, SVG Export Plug-In . SVG Version: 6.00 Build 0)  -->
<svg version="1.1" id="图层_1" xmlns="http://www.w3.org/2000/svg" xmlns:xlink="http://www.w3.org/1999/xlink" x="0px" y="0px"
	 viewBox="0 0 200.4 200" style="enable-background:new 0 0 200.4 200;" xml:space="preserve">
<path d="M187.3,85.8c0-46.8-38-84.8-84.8-84.8S17.6,39,17.6,85.8c0,42.6,31.5,77.9,72.4,83.9l-0.9,15H45.9v14.1H159v-14.1H116
	l-0.9-15C156,163.6,187.3,128.4,187.3,85.8z M102.4,156.5c-39,0-70.7-31.6-70.7-70.7s31.6-70.7,70.7-70.7s70.7,31.6,70.7,70.7
	S141.5,156.5,102.4,156.5z M102.4,32.8c-29.3,0-53,23.7-53,53s23.7,53,53,53s53-23.7,53-53S131.8,32.8,102.4,32.8z M81.2,99.9
	C69.6,99.9,60,90.4,60,78.7s9.5-21.2,21.2-21.2s21.2,9.5,21.2,21.2S92.9,99.9,81.2,99.9z"/>
</svg>
