<?xml version="1.0" encoding="utf-8"?>
<!-- Generator: Adobe Illustrator 24.3.0, SVG Export Plug-In . SVG Version: 6.00 Build 0)  -->
<svg version="1.1" id="图层_1" xmlns="http://www.w3.org/2000/svg" xmlns:xlink="http://www.w3.org/1999/xlink" x="0px" y="0px"
	 viewBox="0 0 200.4 200" style="enable-background:new 0 0 200.4 200;" xml:space="preserve">
<style type="text/css">
	
</style>
<path class="st0" d="M135.5,12.8c32.1,0,58.1,25.9,58.1,57.7c0,14.8-5.6,28.2-14.7,38.4l0.1,0.1L107,180.5c-5.7,5.6-14.9,5.6-20.5,0
	L14.7,109l0.1-0.1C5.2,98.4,0,84.7,0,70.5c0-31.9,26-57.7,58.1-57.7c14.8,0,28.4,5.5,38.7,14.6l0.1-0.1l0.1,0.1
	C107.5,18,121.3,12.8,135.5,12.8z M127.5,89.8c-1.8,0-3.5,0.6-4.9,1.8l-22.5,22.3l-0.5,0.4c-1.9,1.5-4.7,1.3-6.4-0.4L70.9,91.6
	c-2.1-1.9-5.2-2.4-7.8-1.2c-2.6,1.2-4.3,3.7-4.3,6.6c0,1.8,0.7,3.5,1.8,4.8l25.9,25.7c5.7,5.6,14.9,5.6,20.5,0l25.3-25.2
	c0.2-0.2,0.4-0.3,0.5-0.5l0.4-0.4c1.7-2.2,2-5.1,0.7-7.6C132.8,91.3,130.3,89.8,127.5,89.8L127.5,89.8L127.5,89.8z M182.9,186.7
	c-0.7-2.3,0.3-4.8,2.4-6c2.1-1.2,4.7-0.8,6.4,1c4.5-3.9,7.6-9.3,8.7-15.1c-2.4-0.6-4-2.7-4-5.1c0-2.4,1.7-4.5,4-5.1
	c-1.1-5.9-4.2-11.2-8.7-15.1c-1.6,1.8-4.3,2.2-6.4,1c-2.1-1.2-3.1-3.7-2.4-6c-5.6-1.9-11.8-1.9-17.4,0c0.7,2.3-0.3,4.8-2.4,6
	c-2.1,1.2-4.7,0.8-6.4-1c-4.5,3.9-7.6,9.3-8.7,15.1c2.4,0.6,4,2.7,4,5.1c0,2.4-1.7,4.5-4,5.1c1.1,5.9,4.2,11.2,8.7,15.1
	c1.6-1.8,4.3-2.2,6.4-1c2.1,1.2,3.1,3.7,2.4,6C171.1,188.6,177.3,188.6,182.9,186.7L182.9,186.7z M162.8,161.4
	c0-6.3,5.1-11.5,11.4-11.5c6.3,0,11.4,5.1,11.4,11.5c0,6.3-5.1,11.5-11.4,11.5C167.9,172.8,162.8,167.7,162.8,161.4z"/>
</svg>
