<?xml version="1.0" encoding="utf-8"?>
<!-- Generator: Adobe Illustrator 24.3.0, SVG Export Plug-In . SVG Version: 6.00 Build 0)  -->
<svg version="1.1" id="图层_1" xmlns="http://www.w3.org/2000/svg" xmlns:xlink="http://www.w3.org/1999/xlink" x="0px" y="0px"
	 viewBox="0 0 200.4 200" style="enable-background:new 0 0 200.4 200;" xml:space="preserve">
<style type="text/css">

</style>
<path class="st0" d="M36,40h107.7v11.9H36V40z M185.4,155.2c0.7-0.8,1.3-1.8,1.9-3c0.6-1.2,0.4-2.2-0.5-3.1l-1.7-1.7
	c-0.9-0.9-1.4-1.4-1.7-1.6c-1.2-0.8-2.3-0.9-3.3-0.3c-1.1,0.6-2.1,1.4-3.2,2.4c-2.7,2.7-5.3,5.3-8,7.8c-2.6,2.5-5.1,5-7.5,7.3
	c-0.8,0.8-1.7,1.3-2.7,1.5c-1,0.2-1.8-0.2-2.4-1l-1.6-1.7c-0.8-0.8-1.6-1.7-2.4-2.6l-2.4-2.7c-0.8-0.9-1.3-1.5-1.7-1.8
	c-0.7-0.6-1.5-1-2.4-1.1c-0.9-0.2-1.8,0.1-2.7,1l-0.9,0.8c-0.5,0.4-1,0.8-1.4,1.4c-0.5,0.5-0.9,1-1.4,1.4l-0.9,0.8
	c-1.7,1.9-1.5,4,0.7,6.4c0.7,0.8,1.6,1.8,2.8,3.1c1.2,1.2,2.4,2.5,3.7,3.9c1.3,1.4,2.6,2.7,3.9,4.1c1.3,1.3,2.4,2.4,3.3,3.2
	c0.9,0.9,2.2,1.4,3.9,1.3c1.6-0.1,2.9-0.5,3.7-1.5c1.6-1.5,3.5-3.3,5.6-5.5c2.1-2.1,4.3-4.3,6.6-6.5c2.3-2.2,4.5-4.4,6.7-6.5
	C181.7,158.8,183.6,156.8,185.4,155.2L185.4,155.2z M161.5,120.3c5.3,0,10.2,1,14.9,3c4.7,2,8.8,4.8,12.3,8.3
	c3.5,3.5,6.3,7.6,8.3,12.2c2.1,4.6,3.1,9.6,3.1,14.8c0,5.3-1,10.3-3.1,15c-2,4.6-4.8,8.7-8.3,12.2c-3.5,3.5-7.6,6.2-12.3,8.2
	c-4.7,2-9.6,3-14.9,3c-5.4,0-10.4-1-15.1-3c-4.7-2-8.8-4.7-12.3-8.2c-3.5-3.5-6.3-7.6-8.4-12.2c-2.1-4.6-3.1-9.6-3.1-15
	c0-5.2,1-10.1,3.1-14.8c2.1-4.6,4.8-8.7,8.4-12.2c3.5-3.5,7.6-6.2,12.3-8.3C151.1,121.3,156.1,120.3,161.5,120.3z M36,64h107.7v11.9
	L36,75.9V64L36,64z M24,28h12.6h102.3h16.9v60H24V28z M0,172.7c0,6.1,5.5,11.1,12,11.1h110.3c-4.7-7.3-7.4-15.9-7.4-25.2
	c0-25.7,20.8-46.5,46.5-46.5c6.5,0,12.7,1.3,18.3,3.7l0-27.8h-12V16V4.1H12V16V88H0V172.7L0,172.7z"/>
</svg>
