<?xml version="1.0" encoding="utf-8"?>
<!-- Generator: Adobe Illustrator 24.3.0, SVG Export Plug-In . SVG Version: 6.00 Build 0)  -->
<svg version="1.1" id="图层_1" xmlns="http://www.w3.org/2000/svg" xmlns:xlink="http://www.w3.org/1999/xlink" x="0px" y="0px"
	 viewBox="0 0 200.4 200" style="enable-background:new 0 0 200.4 200;" xml:space="preserve">
<style type="text/css">
	
</style>
<path class="st0" d="M157.3,50.1c0-3.9-3.2-7.2-7.2-7.2H58.8c-3.9,0-7.2,3.2-7.2,7.2c0,3.9,3.2,7.2,7.2,7.2h91.4
	C154.1,57.3,157.3,54,157.3,50.1L157.3,50.1z M58.8,85.8c-3.9,0-7.2,3.2-7.2,7.2c0,3.9,3.2,7.2,7.2,7.2h42.7c4,0,7.2-3.2,7.2-7.2
	c0-3.9-3.2-7.2-7.2-7.2H58.8z M161.5,159.2c-0.5-0.5-1-0.9-1.5-1.2c4-5.8,6.4-12.7,6.4-20.3c0-19.7-16.2-35.6-36.1-35.6
	S94.2,118,94.2,137.7s16.2,35.6,36.1,35.6c7.3,0,14.1-2.1,19.8-5.8c0.3,0.6,0.8,1.3,1.3,1.8l18.6,18.6c2.8,2.8,7.3,2.8,10.1,0
	s2.8-7.3,0-10.1L161.5,159.2L161.5,159.2z M130.3,159.3c-12.1,0-21.9-9.7-21.9-21.6s9.8-21.6,21.9-21.6s21.9,9.7,21.9,21.6
	S142.4,159.3,130.3,159.3z"/>
<path class="st0" d="M119.3,185.7H39.7c-7.9,0-14.3-6.4-14.3-14.3V28.8c0-7.9,6.4-14.3,14.3-14.3h122.2c7.9,0,14.3,6.4,14.3,14.3
	v71.1h0.1v0c0,4,3.2,7.2,7.2,7.2c4,0,7.2-3.2,7.2-7.2c0-0.3,0-0.5,0-0.8V28.6c0-15.7-6.2-28.6-21.9-28.6H40.6
	C24.9,0,12,12.9,12,28.6v142.8c0,15.7,12.9,28.6,28.6,28.6h78.6c4,0,7.2-3.2,7.2-7.2C126.4,188.9,123.2,185.7,119.3,185.7
	L119.3,185.7z"/>
<path class="st0" d="M176.3,128.5c0,4,3.2,7.2,7.2,7.2s7.2-3.2,7.2-7.2c0-4-3.2-7.2-7.2-7.2S176.3,124.5,176.3,128.5L176.3,128.5z"
	/>
</svg>
