<?xml version="1.0" encoding="utf-8"?>
<!-- Generator: Adobe Illustrator 24.3.0, SVG Export Plug-In . SVG Version: 6.00 Build 0)  -->
<svg version="1.1" id="图层_1" xmlns="http://www.w3.org/2000/svg" xmlns:xlink="http://www.w3.org/1999/xlink" x="0px" y="0px"
	 viewBox="0 0 200.4 200" style="enable-background:new 0 0 200.4 200;" xml:space="preserve">
<style type="text/css">
	
</style>
<path class="st0" d="M161.9,2.2H42c-13.2,0-23.9,10.7-23.9,23.9v149c0,13.2,10.7,23.9,23.9,23.9h119.8c13.2,0,23.9-10.7,23.9-23.9
	v-149C185.8,12.9,175.1,2.2,161.9,2.2z M59.1,38.7h78.1c5.4,0,9.9,4.4,9.9,9.9s-4.4,9.9-9.9,9.9H59.1c-5.4,0-9.9-4.4-9.9-9.9
	S53.7,38.7,59.1,38.7z M59.1,74.1h45c5.4,0,9.9,4.4,9.9,9.9s-4.4,9.9-9.9,9.9h-45c-5.4,0-9.9-4.4-9.9-9.9
	C49.3,78.6,53.7,74.1,59.1,74.1z M81.6,129.3H59.1c-5.4,0-9.9-4.4-9.9-9.9s4.4-9.9,9.9-9.9h22.5c5.4,0,9.9,4.4,9.9,9.9
	S87.1,129.3,81.6,129.3z M168.8,130.6l-14.3,14c-0.6,0.6-1,1.6-0.8,2.5l3.4,19.7c0.4,2.3-2,4-4,2.9l-17.7-9.3
	c-0.8-0.4-1.8-0.4-2.6,0l-17.7,9.3c-2,1.1-4.4-0.7-4-2.9l3.4-19.7c0.2-0.9-0.1-1.8-0.8-2.5l-14.3-14c-1.6-1.6-0.7-4.4,1.5-4.7
	l19.8-2.9c0.9-0.1,1.7-0.7,2.1-1.5l8.9-18c1-2.1,4-2.1,5,0l8.9,18c0.4,0.8,1.2,1.4,2.1,1.5l19.8,2.9
	C169.5,126.2,170.4,129,168.8,130.6z"/>
</svg>
