<?xml version="1.0" encoding="utf-8"?>
<!-- Generator: Adobe Illustrator 24.3.0, SVG Export Plug-In . SVG Version: 6.00 Build 0)  -->
<svg version="1.1" id="图层_1" xmlns="http://www.w3.org/2000/svg" xmlns:xlink="http://www.w3.org/1999/xlink" x="0px" y="0px"
	 viewBox="0 0 200.4 200" style="enable-background:new 0 0 200.4 200;" xml:space="preserve">
<style type="text/css">

</style>
<path class="st0" d="M57.6,71.1v114.3c0,7.9-6.4,14.3-14.3,14.3H14.8c-7.9,0-14.3-6.4-14.3-14.3c0,0,0,0,0,0V71.1H57.6z M129.1,99.6
	v85.7c0,7.9-6.4,14.3-14.3,14.3H86.2c-7.9,0-14.3-6.4-14.3-14.3l0,0V99.6H129.1z M200.5,71.1v114.3c0,7.9-6.4,14.3-14.3,14.3h-28.6
	c-7.9,0-14.3-6.4-14.3-14.3v0V71.1H200.5z M186.2,142.5h-28.6v28.6h28.6V142.5z M186.2,99.6h-28.6v28.6h28.6V99.6z M114.8,28.2
	c7.9,0,14.3,6.4,14.3,14.3c0,0,0,0,0,0v28.6H71.9V42.5c0-7.9,6.4-14.3,14.3-14.3l0,0C86.2,28.2,114.8,28.2,114.8,28.2z M43.4-0.4
	c7.9,0,14.3,6.4,14.3,14.3l0,0v28.6H0.5V13.9C0.5,6,6.9-0.4,14.8-0.4c0,0,0,0,0,0C14.8-0.4,43.4-0.4,43.4-0.4z M186.2-0.4
	c7.9,0,14.3,6.4,14.3,14.3v28.6h-57.1V13.9c0-7.9,6.4-14.3,14.3-14.3c0,0,0,0,0,0H186.2z"/>
</svg>
