<?xml version="1.0" encoding="utf-8"?>
<!-- Generator: Adobe Illustrator 24.3.0, SVG Export Plug-In . SVG Version: 6.00 Build 0)  -->
<svg version="1.1" id="图层_1" xmlns="http://www.w3.org/2000/svg" xmlns:xlink="http://www.w3.org/1999/xlink" x="0px" y="0px"
	 viewBox="0 0 200.4 200" style="enable-background:new 0 0 200.4 200;" xml:space="preserve">
<path d="M11.7,13.9c1.4-0.3,2.9-0.2,4.3-0.2c51,0,101.9,0,152.9,0c2.1,0,4.1,0.5,6,1.5c3.4,1.7,5.9,5,6.7,8.7
	c0.3,1.4,0.3,2.9,0.3,4.4c-3.6-0.1-7.2,0-10.9,0c-48.3,0-96.7,0-145.1,0c-3.6,0-7.1,1.5-9.5,4.1c-2.2,2.4-3.5,5.6-3.5,8.9
	c0,35.2,0,70.3,0,105.5c-3.3-0.3-6.4-1.8-8.6-4.3c-2-2.2-3.2-5.1-3.3-8.1V25.9c0.2-2.1,0.8-4.2,1.9-6C4.8,16.8,8.1,14.5,11.7,13.9z"
	/>
<path d="M23.5,38.4c2.4-2.3,5.7-3.7,9-3.6c51.6,0,103.2,0,154.8,0c3.2,0,6.4,1.2,8.8,3.4c2.5,2.2,4,5.5,4.2,8.8v108.4
	c-0.2,2.7-1.1,5.4-2.9,7.5c-2.4,3-6.1,4.9-10,4.9c-10.9,0-21.7,0-32.6,0c-3.7,6.3-7.3,12.7-11,19c-1,1.6-1.8,3.5-3.3,4.8
	c-2.2,2-5.3,2.9-8.2,2.2c-2.5-0.5-4.8-2.2-6.1-4.4c-4.2-7.2-8.3-14.4-12.5-21.6c-27.2,0-54.3,0-81.5,0c-3.7,0-7.3-1.6-9.7-4.3
	c-2.2-2.4-3.4-5.6-3.3-8.8V47.8C19.5,44.3,20.9,40.8,23.5,38.4 M61.1,88.4c-4.7,0.4-9.2,3.2-11.6,7.3c-2,3.4-2.6,7.5-1.7,11.3
	c0.8,3.2,2.7,6.2,5.3,8.2c2.6,2,5.8,3.2,9.1,3.3c3.2,0.1,6.4-0.9,8.9-2.7c2.6-1.9,4.7-4.6,5.7-7.7c1-3,1-6.3,0-9.3
	c-1-3.2-3.2-6.1-6-7.9C67.9,89,64.4,88.1,61.1,88.4 M108.7,88.4c-4.8,0.4-9.3,3.2-11.7,7.4c-2.1,3.5-2.6,7.9-1.4,11.8
	c0.9,3.3,3.1,6.2,5.8,8.1c2.6,1.8,5.8,2.8,9,2.7c3-0.1,6-1.1,8.4-2.8c2.6-1.8,4.6-4.5,5.5-7.6c1-3,1-6.3,0-9.3c-1-3.2-3.2-6.1-6-7.9
	C115.5,89,112,88.1,108.7,88.4 M156.3,88.4c-4.7,0.4-9.1,3.1-11.5,7.1c-1.9,3.1-2.7,7-2,10.6c0.6,3.5,2.6,6.8,5.5,9.1
	c4.6,3.8,11.5,4.3,16.7,1.4c3.3-1.8,5.9-4.9,7-8.5c1-3,1-6.3,0-9.3c-1.1-3.3-3.3-6.1-6.2-8C163,88.9,159.6,88.1,156.3,88.4
	L156.3,88.4z"/>
</svg>
