<?xml version="1.0" encoding="utf-8"?>
<!-- Generator: Adobe Illustrator 24.3.0, SVG Export Plug-In . SVG Version: 6.00 Build 0)  -->
<svg version="1.1" id="图层_1" xmlns="http://www.w3.org/2000/svg" xmlns:xlink="http://www.w3.org/1999/xlink" x="0px" y="0px"
	 viewBox="0 0 200.4 200" style="enable-background:new 0 0 200.4 200;" xml:space="preserve">
<path d="M64.3,100c0,19.7,16,35.7,35.7,35.7s35.7-16,35.7-35.7s-16-35.7-35.7-35.7S64.3,80.3,64.3,100z"/>
<path d="M192.9,92.9h-7.4C182,51.2,148.8,18,107.1,14.6V7.1c0-3.9-3.2-7.1-7.1-7.1s-7.1,3.2-7.1,7.1v7.4C51.2,18,18,51.2,14.6,92.9
	H7.1C3.2,92.9,0,96.1,0,100c0,3.9,3.2,7.1,7.1,7.1h7.4c3.4,41.6,36.6,74.8,78.3,78.3v7.4c0,3.9,3.2,7.1,7.1,7.1
	c3.9,0,7.1-3.2,7.1-7.1v-7.4c41.6-3.4,74.8-36.6,78.3-78.3h7.4c3.9,0,7.1-3.2,7.1-7.1S196.8,92.9,192.9,92.9z M107.1,171.1v-6.8
	c0-3.9-3.2-7.1-7.1-7.1s-7.1,3.2-7.1,7.1v6.8c-33.7-3.4-60.6-30.2-63.9-63.9h6.8c3.9,0,7.1-3.2,7.1-7.1s-3.2-7.1-7.1-7.1h-6.8
	c3.4-33.7,30.2-60.6,63.9-63.9v6.8c0,3.9,3.2,7.1,7.1,7.1c3.9,0,7.1-3.2,7.1-7.1v-6.8c33.7,3.4,60.6,30.2,63.9,63.9h-6.8
	c-3.9,0-7.1,3.2-7.1,7.1c0,3.9,3.2,7.1,7.1,7.1h6.8C167.7,140.9,140.9,167.7,107.1,171.1z"/>
</svg>
