<?xml version="1.0" encoding="utf-8"?>
<!-- Generator: Adobe Illustrator 24.3.0, SVG Export Plug-In . SVG Version: 6.00 Build 0)  -->
<svg version="1.1" id="图层_1" xmlns="http://www.w3.org/2000/svg" xmlns:xlink="http://www.w3.org/1999/xlink" x="0px" y="0px"
	 viewBox="0 0 200.4 200" style="enable-background:new 0 0 200.4 200;" xml:space="preserve">
<path d="M55,14.3v28.6h86V14.3h35.8c4.3,0,7.2,2.9,7.2,7.1v171.4c0,4.3-2.9,7.1-7.2,7.1H19.2c-4.3,0-7.2-2.9-7.2-7.1V21.4
	c0-4.3,2.9-7.1,7.2-7.1H55z M55,85.7V100h86V85.7C141,85.7,55,85.7,55,85.7z M55,114.3v14.3h86v-14.3H55z M55,142.9v14.3h86v-14.3
	H55z M76.5,0h43c4.3,0,7.2,2.9,7.2,7.1v21.4H69.3V7.1C69.3,2.8,72.2,0,76.5,0z"/>
</svg>
