<?xml version="1.0" encoding="utf-8"?>
<!-- Generator: Adobe Illustrator 24.3.0, SVG Export Plug-In . SVG Version: 6.00 Build 0)  -->
<svg version="1.1" id="图层_1" xmlns="http://www.w3.org/2000/svg" xmlns:xlink="http://www.w3.org/1999/xlink" x="0px" y="0px"
	 viewBox="0 0 200.4 200" style="enable-background:new 0 0 200.4 200;" xml:space="preserve">
<path d="M196.3,117.7c5.6-22.3-0.6-36.9-0.6-36.9l-21.3-1c-1.8-6.6-4.6-13-8.1-18.9l14.4-16.4c-11.8-19.7-26.5-25.7-26.5-25.7
	l-15.9,14.4c-6-3.5-12.4-6.1-19.1-7.9l-1.4-21.5C95.6-1.7,81.1,4.5,81.1,4.5l-1,20.6c-6.7,1.7-13,4.1-18.9,7.4l-15-13.6
	c0,0-14.6,6-26.5,25.7c3.8,4.3,11.2,9.2,11.6,15.5c0.1,1.5-7.1,19.8-7.4,19.9L4.7,80.9c0,0-6.1,14.6-0.6,36.9l19,1.2
	c1.8,7.5,4.6,14.6,8.5,21.2L19.1,154c0,0,6,14.6,25.7,26.5l14.3-12.6c6.5,3.9,13.6,6.9,21,8.7l0.9,18.9c0,0,14.6,6.1,36.9,0.6
	l1.3-19.7c7.5-2,14.7-5.1,21.3-9.2l15.1,13.3c19.7-11.8,25.7-26.5,25.7-26.5l-13.8-15.2c3.4-6.1,6-12.7,7.6-19.7L196.3,117.7
	L196.3,117.7z M100.2,145.9c-25.3,0-45.9-20.5-45.9-45.9s20.5-45.9,45.9-45.9s45.9,20.5,45.9,45.9S125.5,145.9,100.2,145.9z"/>
</svg>
