<?xml version="1.0" encoding="utf-8"?>
<!-- Generator: Adobe Illustrator 24.3.0, SVG Export Plug-In . SVG Version: 6.00 Build 0)  -->
<svg version="1.1" id="图层_1" xmlns="http://www.w3.org/2000/svg" xmlns:xlink="http://www.w3.org/1999/xlink" x="0px" y="0px"
	 viewBox="0 0 200.4 200" style="enable-background:new 0 0 200.4 200;" xml:space="preserve">
<style type="text/css">
	
</style>
<path class="st0" d="M197.2,194.1l-2,2c-2,2-7,2-9,0l-15.5-13.5c-5.5,3.5-12,5.5-19,5.5c-19.5,0-35.5-16-35.5-35.5
	s16-35.5,35.5-35.5s35.5,16,35.5,35.5c0,7-2,13.5-5.5,19l15.5,13.5C199.2,187.6,199.2,191.6,197.2,194.1L197.2,194.1z M151.7,132.1
	c-11,0-20,9-20,20s9,20,20,20s20-9,20-20S162.7,132.1,151.7,132.1z M173.2,104.1V52.6H53.7v110h46c0,7.5,6.5,14,8.5,18.5H47.7
	c-7,0-12.5-6-12.5-13v-120c0-7,5.5-13,12.5-13h130.5c7,0,12.5,6,12.5,13v70C187.2,113.1,179.7,106.6,173.2,104.1z M21.7,25.1v141.5
	c-6,0-18-0.5-18-11.5v-142c0-6,4.5-10.5,10.5-10.5h142.5c9,0,11,10,11,16l-141,1.5C23.8,20.1,21.8,22.6,21.7,25.1z M83.8,77.6h60
	c3,0,5,2,5,5v18.5c-11.5-1-21.5,1.5-30,8c-8.5,6.5-15.5,16-20,28.5h-15c-3,0-5-2-5-5v-50C78.8,79.6,80.8,77.6,83.8,77.6z"/>
</svg>
