<?xml version="1.0" encoding="utf-8"?>
<!-- Generator: Adobe Illustrator 24.3.0, SVG Export Plug-In . SVG Version: 6.00 Build 0)  -->
<svg version="1.1" id="图层_1" xmlns="http://www.w3.org/2000/svg" xmlns:xlink="http://www.w3.org/1999/xlink" x="0px" y="0px"
	 viewBox="0 0 200.4 200" style="enable-background:new 0 0 200.4 200;" xml:space="preserve">
<style type="text/css">
	
</style>
<path class="st0" d="M106.4,52.5h0.4c6.2,8.2,15.9,13.1,26.2,13.1c12.3,0.1,23.6-6.8,29.2-17.8c2.4-4.6,3.7-9.8,3.7-15
	c0-5.2-1.2-10.3-3.6-14.9C156.7,6.9,145.4-0.1,133,0c-12,0-23,6.5-28.7,17c-2.6,4.8-4,10.3-4,15.8c0,5.5,1.4,10.9,3.9,15.7
	L106.4,52.5z"/>
<path class="st0" d="M173.1,47h11.7c7.8,0,14.2-6.4,14.2-14.2c0-7.8-6.4-14.2-14.2-14.2h-11.7l0.8,2.4c1.2,3.8,1.8,7.8,1.8,11.8
	c0,4-0.6,8-1.8,11.8L173.1,47z"/>
<path class="st0" d="M16.2,47H93l-0.8-2.4c-1.3-3.8-1.9-7.8-1.9-11.8c0-4,0.6-8,1.9-11.8l0.8-2.4H16.2C8.4,18.6,2,24.9,2,32.7
	C2,40.6,8.3,46.9,16.2,47C16.2,47,16.2,47,16.2,47z"/>
<path class="st0" d="M133,134.4c-12,0-23,6.5-28.7,17c-2.6,4.8-4,10.3-4,15.8c0,5.5,1.4,10.9,3.9,15.7l2.2,4h0.4
	c6.2,8.2,15.9,13.1,26.2,13.1c12.3,0.1,23.6-6.8,29.2-17.8c2.4-4.6,3.7-9.8,3.7-15c0-5.2-1.2-10.3-3.6-14.9
	C156.7,141.3,145.3,134.4,133,134.4L133,134.4z"/>
<path class="st0" d="M184.8,153h-11.7l0.8,2.4c1.2,3.8,1.8,7.8,1.8,11.8c0,4-0.6,8-1.8,11.8l-0.8,2.4h11.7c7.8,0,14.2-6.4,14.2-14.2
	C198.9,159.4,192.6,153,184.8,153z"/>
<path class="st0" d="M93,153H16.2C8.4,153,2,159.4,2,167.2c0,7.8,6.4,14.2,14.2,14.2H93l-0.8-2.4c-1.3-3.8-1.9-7.8-1.9-11.8
	c0-4,0.6-8,1.9-11.8L93,153z"/>
<path class="st0" d="M96.8,84.2l-2.2-4h-0.4C88,71.9,78.3,67.1,68,67C55.7,67,44.4,73.9,38.8,84.9c-2.4,4.6-3.7,9.8-3.7,15
	c0,5.2,1.2,10.3,3.6,14.9c5.6,11,16.9,17.9,29.2,17.9c12,0,23-6.5,28.7-17c2.7-4.8,4-10.3,4-15.8C100.7,94.4,99.4,89,96.8,84.2
	L96.8,84.2z"/>
<path class="st0" d="M16.2,114h11.7l-0.8-2.4c-1.2-3.8-1.8-7.8-1.8-11.8c0-4,0.6-8,1.8-11.8l0.8-2.4H16.2C8.4,85.7,2,92,2,99.8
	C2,107.7,8.4,114,16.2,114z"/>
<path class="st0" d="M184.8,85.7H108l0.8,2.4c1.3,3.8,1.9,7.8,1.9,11.8c0,4-0.6,8-1.9,11.8l-0.8,2.4h76.8c7.8,0,14.2-6.4,14.2-14.2
	C199,92.1,192.6,85.7,184.8,85.7C184.8,85.7,184.8,85.7,184.8,85.7z"/>
</svg>
