<?xml version="1.0" encoding="utf-8"?>
<!-- Generator: Adobe Illustrator 24.3.0, SVG Export Plug-In . SVG Version: 6.00 Build 0)  -->
<svg version="1.1" id="图层_1" xmlns="http://www.w3.org/2000/svg" xmlns:xlink="http://www.w3.org/1999/xlink" x="0px" y="0px"
	 viewBox="0 0 200.4 200" style="enable-background:new 0 0 200.4 200;" xml:space="preserve">
<path d="M185.4,118.9h-15.8c-1.5,5.3-3.6,10.5-6.3,15.3l11.1,11.1c5.1,5.1,5.1,13.5,0,18.6l-9.3,9.3c-5.1,5.1-13.5,5.1-18.6,0
	l-11.1-11.1c-4.8,2.7-9.9,4.8-15.3,6.3v15.9c0,7.2-5.9,13.1-13.1,13.1H93.8c-7.2,0-13.1-5.9-13.1-13.1v-15.9
	c-5.5-1.6-10.8-3.8-15.8-6.6l-11.4,11.4c-5.1,5.1-13.5,5.1-18.6,0c0,0,0,0,0,0l-9.3-9.3c-5.1-5.1-5.1-13.5,0-18.6l11.6-11.6
	c-2.5-4.7-4.6-9.7-6-14.8H15.3c-7.2,0-13.1-5.9-13.1-13.1V92.7c0-7.2,5.9-13.1,13.1-13.1h15.8c1.5-5.4,3.6-10.5,6.3-15.3L25.6,52.3
	c-5.1-5.1-5.1-13.4,0-18.6c0,0,0,0,0,0l9.3-9.3c5.1-5.1,13.5-5.1,18.6,0c0,0,0,0,0,0l11.9,11.9c4.8-2.7,9.9-4.8,15.3-6.3V14.2
	c0-7.2,5.9-13.1,13.1-13.1h13.1c7.2,0,13.1,5.9,13.1,13.1v15.8c5.2,1.5,10.2,3.5,14.8,6l11.6-11.6c5.1-5.1,13.5-5.1,18.6,0l9.3,9.3
	c5.1,5.1,5.1,13.4,0,18.6c0,0,0,0,0,0l-11.4,11.4c2.8,5,5.1,10.3,6.6,15.8h15.9c7.2,0,13.1,5.9,13.1,13.1v13.1
	C198.5,113,192.6,118.9,185.4,118.9L185.4,118.9z M100.4,60c-21.7,0-39.2,17.6-39.3,39.2c0,21.7,17.6,39.2,39.2,39.3c0,0,0,0,0,0
	c21.7,0,39.2-17.6,39.2-39.3C139.6,77.6,122,60,100.4,60z M100.4,118.9c-10.8,0-19.6-8.8-19.6-19.6s8.8-19.6,19.6-19.6
	S120,88.4,120,99.3S111.2,118.9,100.4,118.9z"/>
</svg>
