<?xml version="1.0" encoding="utf-8"?>
<!-- Generator: Adobe Illustrator 24.3.0, SVG Export Plug-In . SVG Version: 6.00 Build 0)  -->
<svg version="1.1" id="图层_1" xmlns="http://www.w3.org/2000/svg" xmlns:xlink="http://www.w3.org/1999/xlink" x="0px" y="0px"
	 viewBox="0 0 200.4 200" style="enable-background:new 0 0 200.4 200;" xml:space="preserve">
<style type="text/css">
	
</style>
<g>
	<path class="st0" d="M56,27.5h73.7c1.3,0,1.3,0,1.3-1.2v-25c0-1.2,0-1.2-1.3-1.2H56c-1.3,0-1.3,0-1.3,1.2v25
		C54.7,27.5,54.7,27.5,56,27.5z"/>
	<path class="st0" d="M95.5,157.4L95.5,157.4c0-28.8,25-52.5,54-52.5c9.2,0,17.1,2.5,25,6.2V23.7c0-2.5-2.6-5-5.3-5h-29v13.7
		c0,2.5-2.6,5-5.3,5H50.8c-2.6,0-5.3-2.5-5.3-5V18.7H15.3c-2.6,0-5.3,1.2-5.3,5v168.8c0,2.5,2.6,5,5.3,5h100
		C102.1,187.4,95.5,172.4,95.5,157.4z M40.3,69.9c0-1.2,1.3-2.5,2.6-2.5h98.7c1.3,0,2.6,1.3,2.6,2.5v13.8c0,1.2-1.3,2.5-2.6,2.5
		H42.9c-1.3,0-2.6-1.2-2.6-2.5V69.9z M94.2,124.9c0,1.2-1.3,2.5-2.6,2.5H42.9c-1.3,0-2.6-1.3-2.6-2.5v-12.5c0-1.3,1.3-2.5,2.6-2.5
		h48.7c1.3,0,2.6,1.2,2.6,2.5V124.9z"/>
	<path class="st0" d="M150.8,114.9L150.8,114.9c-23.7,0-43.4,18.7-43.4,42.5s18.4,42.5,43.4,42.5s43.4-18.7,43.4-42.5
		C194.2,133.8,174.5,114.9,150.8,114.9z M169.2,173.8h-24.3l2.2,2.2c2,2.1,2,5.5-0.1,7.5s-5.3,2-7.4,0l-10.2-10.2
		c-1.5-1-2.1-2.4-2.6-4.7c0-0.1,0-0.1,0-0.2c0-3.2,1.6-4.9,4.6-5.1c0.3,0,0.6-0.1,0.8,0h36.9c3.5,0,5.3,1.8,5.3,5.3
		C174.5,171.9,172.7,173.8,169.2,173.8z M174.4,148.2c-0.3,2.8-2,4.2-5.1,4.3h-0.1l0,0h-37.1c-3.5,0-5.3-1.8-5.3-5.3
		s1.8-5.3,5.3-5.3h24.3l-2.2-2.2c-2-2.1-1.9-5.5,0.2-7.5c2-1.9,5.2-1.9,7.2,0l10.2,10.2c1.1,1.1,2,2,2.5,3.8
		C174.6,146.8,174.6,147.6,174.4,148.2z"/>
</g>
</svg>
