<?xml version="1.0" encoding="utf-8"?>
<!-- Generator: Adobe Illustrator 24.3.0, SVG Export Plug-In . SVG Version: 6.00 Build 0)  -->
<svg version="1.1" id="图层_1" xmlns="http://www.w3.org/2000/svg" xmlns:xlink="http://www.w3.org/1999/xlink" x="0px" y="0px"
	 viewBox="0 0 200.4 200" style="enable-background:new 0 0 200.4 200;" xml:space="preserve">
<style type="text/css">
	
</style>
<path class="st0" d="M39.8,97.6L58,76.1c7.1-8.4,21.2-10.4,30.1-3c11.5,7.4,8.9,22,1.8,30.4L72,124.7C71.1,124,40.4,98,39.8,97.6
	 M5.5,138.3c9.5-11.3,17-20.1,26.5-31.4l31.9,26.9l-26.2,31.7c-7.1,8.4-22.3,11.8-31.2,4.3C-2.4,162.3-1.6,146.7,5.5,138.3"/>
<path class="st0" d="M93.6,19.3h92.3v18.9H93.6V19.3z M92.6,162.9c3.3,0,6.1,1.7,6.1,3.7c0,2-2.7,3.7-6.1,3.7
	c-3.4,0-6.1-1.7-6.1-3.7C86.5,164.6,89.2,162.9,92.6,162.9 M108.7,159c4,0,7.3,2.1,7.3,4.7c0,2.6-3.3,4.7-7.3,4.7
	c-4,0-7.3-2.1-7.3-4.7C101.4,161.1,104.7,159,108.7,159 M165,155.9c-5.5,0-10,2.1-10,4.7v0.1c-3.1-0.8-6.3-1.3-9.5-1.3
	c2.6-0.7,4.4-2.2,4.4-3.9c0-2.4-3.3-4.4-7.5-4.4c-0.4,0-0.8,0-1.2,0.1c-0.4-3.5-3.9-6.2-8.2-6.2c-2.7,0-5,1.1-6.5,2.7
	c-0.4-0.7-1.1-1.3-1.9-1.6c-2.7-0.9-6.1,1.9-7.5,6.2c-1.4,4.3-0.5,8.6,2.2,9.5c2.6,0.9,5.8-1.6,7.3-5.6c1.5,1.6,3.8,2.7,6.5,2.7
	c1.2,0,2.4-0.2,3.4-0.6c1,0.8,2.4,1.3,4,1.6c-6.4,0.7-11.1,2.9-11.1,5.5c0,3.1,7.1,5.7,15.8,5.7c8.6,0,15.7-2.6,15.7-5.7
	c0-0.1,0-0.2,0-0.2c1.3,0.3,2.7,0.4,4.1,0.4c0.4,0,0.8,0,1.2,0c-0.4,1.1-0.5,2.3,0,3.5c1.5,3.6,7.8,4.5,14.1,1.9
	c6.3-2.6,10.3-7.6,8.8-11.2c-1.5-3.6-7.8-4.5-14.1-1.9c-0.5,0.2-0.9,0.4-1.4,0.6c-0.3-0.2-0.5-0.4-0.8-0.5c0.2-1.8,0.3-3.6,0.3-5.5
	c0-6.4-1.2-11.6-2.6-11.6c-1.4,0-2.6,5.2-2.6,11.6c0,1.4,0.1,2.7,0.2,4C167,155.9,166,155.9,165,155.9 M115.9,49.7v16.6
	c-8.4,0.5-15.5,3.1-21.5,7.6c9.7,8.7,6.6,23.2-0.6,31.8c-4.9,5.8-9.8,11.6-14.7,17.4v54.4h121.3v-70.2c0-11.7-3.4-21.2-10.2-28.8
	c-6.8-7.5-15.7-11.6-26.6-12.3V49.7L115.9,49.7L115.9,49.7z M130.6,78.5h18.7v23.2h23v18.6h-23v23h-18.7v-23h-22.9v-18.6h22.9V78.5z
	"/>
</svg>
