<?xml version="1.0" encoding="utf-8"?>
<!-- Generator: Adobe Illustrator 24.3.0, SVG Export Plug-In . SVG Version: 6.00 Build 0)  -->
<svg version="1.1" id="图层_1" xmlns="http://www.w3.org/2000/svg" xmlns:xlink="http://www.w3.org/1999/xlink" x="0px" y="0px"
	 viewBox="0 0 200.4 200" style="enable-background:new 0 0 200.4 200;" xml:space="preserve">
<style type="text/css">
	
</style>
<path class="st0" d="M19.1,106.2H0.3v87.5h18.8c3.7,0,6.2-2.5,6.2-6.2v-75C25.3,108.7,22.8,106.2,19.1,106.2z"/>
<path class="st1" d="M75.3,31.2V12.4c0-3.1,3.1-6.2,6.2-6.2h100c3.1,0,6.2,3.1,6.2,6.2v18.8H75.3z M87.8,81.2
	c10.6,0,38.1,6.2,60,11.3c8.7,1.9,15,10,15,18.7c0,1.2,0,3.1-0.6,4.4c3.8-1.2,25.6-9.4,25.6-9.4V43.7H75.3v40
	C79.1,82.4,83.5,81.2,87.8,81.2z"/>
<path class="st2" d="M37.8,118.7c12.5,0,25-12.5,25-12.5s12.5-12.5,25-12.5c10,0,43.7,8.1,56.9,11.2c3.1,0.6,5.6,3.8,5.6,6.9
	c0,3.8-3.1,6.9-6.9,6.9h-30.6c0,12.5,25,12.5,37.5,12.5s31.9-10.6,40-12.5c2.5-0.6,7.5,0,9.4,3.1c1.9,3.8,0.6,7.5-3.1,9.4
	c-12.5,7.5-40,25-71.2,25c-25,0-37.5-12.5-50-12.5s-37.5,25-37.5,25V118.7z"/>
</svg>
