<?xml version="1.0" encoding="utf-8"?>
<!-- Generator: Adobe Illustrator 24.3.0, SVG Export Plug-In . SVG Version: 6.00 Build 0)  -->
<svg version="1.1" id="图层_1" xmlns="http://www.w3.org/2000/svg" xmlns:xlink="http://www.w3.org/1999/xlink" x="0px" y="0px"
	 viewBox="0 0 200.4 200" style="enable-background:new 0 0 200.4 200;" xml:space="preserve">
<path d="M188.3,151.8H11.5c-5.7,0-10.4,4.7-10.4,10.4v26c0,5.7,4.7,10.4,10.4,10.4h176.8c5.7,0,10.4-4.7,10.4-10.4v-26
	C198.7,156.5,194,151.8,188.3,151.8L188.3,151.8z M97.3,183H29.7c-4.2,0-7.8-3.6-7.8-7.8c0-4.2,3.6-7.8,7.8-7.8h67.6
	c4.2,0,7.8,3.6,7.8,7.8C105.1,179.4,101.5,183,97.3,183z M144.1,183c-4.2,0-7.8-3.6-7.8-7.8c0-4.2,3.6-7.8,7.8-7.8
	c4.2,0,7.8,3.6,7.8,7.8C151.9,179.4,148.3,183,144.1,183z M170.1,183c-4.2,0-7.8-3.6-7.8-7.8c0-4.2,3.6-7.8,7.8-7.8
	c4.2,0,7.8,3.6,7.8,7.8C177.9,179.4,174.3,183,170.1,183z M188.3,1H11.5C5.8,1,1.1,5.7,1.1,11.4v114.4c0,5.7,4.7,10.4,10.4,10.4
	h176.8c5.7,0,10.4-4.7,10.4-10.4V11.4C198.7,5.7,194,1,188.3,1L188.3,1z M170.1,88.9h-20.3c-4.7,0-9.4-2.6-11.4-6.8l-21.3-39
	l-21.8,66.1c-1.6,4.7-5.2,8.3-9.9,8.8h-2.6c-4.7,0-8.8-2.1-10.9-6.2L54.1,83.2H29.7c-4.2,0-7.8-3.6-7.8-7.8s3.6-7.8,7.8-7.8h28.6
	c2.6,0,5.2,1.6,6.8,3.6l17.2,27.6l21.8-66.1c1.6-4.7,5.2-8.3,10.4-9.4c5.7-1,10.9,1.6,13.5,6.8l23.4,42.6h18.7
	c4.2,0,7.8,3.6,7.8,7.8S174.3,88.9,170.1,88.9z"/>
</svg>
