<?xml version="1.0" encoding="utf-8"?>
<!-- Generator: Adobe Illustrator 24.3.0, SVG Export Plug-In . SVG Version: 6.00 Build 0)  -->
<svg version="1.1" id="图层_1" xmlns="http://www.w3.org/2000/svg" xmlns:xlink="http://www.w3.org/1999/xlink" x="0px" y="0px"
	 viewBox="0 0 216 200" style="enable-background:new 0 0 216 200;" xml:space="preserve">
<path d="M160.2,80.3l-14-27.9c-0.8-0.9-1.6-1.8-1.6-2.7c-0.8-0.9-0.8-0.9-1.6-1.8c-5.8-6.3-14-7.2-21.4-3.6L83,58.7
	c-3.3,0.9-5.8,4.5-6.6,8.1l-3.3,33.3c-0.8,5.4,3.3,10.8,8.2,11.7h0.8c4.9,0,9-3.6,9-9l2.5-26.1l14.8-5.4c-2.5,6.3-4.9,12.6-6.6,17.1
	c-3.3,8.1-3.3,18.9,0.8,27.9l-25.5,64.8c-2.5,6.3,0,14.4,5.8,17.1c2.4,0.3,3.6,0.4,5.8,0c4.8-0.9,9-2.7,10.7-8.1l18.9-46.8
	c11.5,22.5,24.7,48.6,24.7,49.5c2.5,4.5,6.6,7.2,10.7,7.2c1.6,0,4.1-0.9,5.8-1.8c5.8-3.6,8.2-11.7,4.9-18
	c-0.8-1.8-20.5-42.3-33.7-66.6l11.5-27.9l4.1,8.1c0.8,2.7,3.3,3.6,4.9,4.5l25.5,10.8c0.8,0,2.5,0.9,3.3,0.9c4.1,0,7.4-2.7,9-7.2
	c0.8-5.4-1.6-11.7-6.6-13.5C182.4,89.3,160.2,80.3,160.2,80.3z M158.9,19.5C158.9,8.8,150,0,139.4,0C128.8,0,120,8.8,120,19.5
	c0,10.6,8.8,19.5,19.5,19.5C150,38.9,158.9,30.1,158.9,19.5z M90.8,127.3c3.1-10.1-1.9-19.8-11.1-23.3c-9.2-3.5-19.4,0.5-23.8,10.1
	l-4.9-1.9c-4.5-1.7-9.8,0-11.5,4.7L29.2,144c-1.8,4.7,0.6,10.5,5.1,12.2L79,173.1c4.5,1.7,9.5-1.3,11.3-6l10.3-27.1
	c1.8-4.6-0.3-9.2-4.9-10.9L90.8,127.3z M40.3,154.3l13.9-36.8l3.5,1.3l-13.9,36.8L40.3,154.3z M78.3,107.6c7.3,2.8,11.4,10.1,9,18.4
	l-27.9-10.6C63.1,107.6,71,104.8,78.3,107.6L78.3,107.6z M75.2,167.5l-3.5-1.3l13.9-36.8l3.5,1.3L75.2,167.5L75.2,167.5z"/>
</svg>
