<?xml version="1.0" encoding="utf-8"?>
<!-- Generator: Adobe Illustrator 24.3.0, SVG Export Plug-In . SVG Version: 6.00 Build 0)  -->
<svg version="1.1" id="图层_1" xmlns="http://www.w3.org/2000/svg" xmlns:xlink="http://www.w3.org/1999/xlink" x="0px" y="0px"
	 viewBox="0 0 200.4 200" style="enable-background:new 0 0 200.4 200;" xml:space="preserve">
<style type="text/css">
	
</style>
<path class="st0" d="M172.9,152.8c5.2,5.2,5.2,14.8,0,20c-2.6,2.6-6.1,4.4-10.5,4.4c-3.5,0-7.8-1.7-10.5-4.4l-50.5-50.5L51,172.8
	c-5.2,5.2-14.8,5.2-20,0c-5.2-5.2-5.2-14.8,0-20l50.5-50.5L31,51.8c-2.6-2.6-4.4-6.1-4.4-10.5c0-3.5,1.7-7.8,4.4-10.5
	c5.2-5.2,14.8-5.2,20,0l50.5,50.5L152,30.9c2.6-2.6,6.1-4.4,10.5-4.4c3.5,0,7.8,1.7,10.5,4.4s4.4,6.1,4.4,10.5
	c0,3.5-1.7,7.8-4.4,10.5l-50.5,50.5L172.9,152.8z"/>
</svg>
